<svg height="683" viewBox="0 0 594 683" width="594" xmlns="http://www.w3.org/2000/svg" xmlns:xlink="http://www.w3.org/1999/xlink"><linearGradient id="a" x1="50%" x2="5.240352%" y1="100%" y2="4.94285%"><stop offset="0" stop-color="#2b73b3"/><stop offset="1" stop-color="#3bbde8"/></linearGradient><path d="m257.727998 186.799066.155002.002934.316.009.316.011.041012.001693c.165479.00626.330749.013317.495806.021166l.093182.004141.105678.005703c.148746.007655.297319.015953.445714.024891l.076608.004406.314.02.145128.010699c.427029.030242.852554.065793 1.276505.106585l.136367.012716.31.032.309.033.309.036.027021.003246c.065198.007703.130356.015531.195475.023482l.085504.010272.308.039.307.041.069683.009792c.134614.018544.269053.037618.403315.057221l.139002.019987.128784.019845c.148623.022516.297026.04568.445207.069488l.036009.005667.052395.008618c.063727.010355.127413.02083.191058.031424l.060547.009958.045963.007888c.132082.022277.263984.045067.395704.068367l.164333.028745.203922.037813c.026703.004929.053398.00988.080086.014851l.017992.003336.009265.001749c.06035.011276.120661.022659.180932.034149l.111803.021102.3.059.056415.011471c.125368.025139.250563.050743.375582.076808l.168003.034721.177518.038591c.13719.029615.274166.059787.410925.090514l.008557.001895.007026.001609c.164984.037124.329652.075056.493999.113791l.092975.0216.296.071.139711.035046c.110861.027406.221573.055178.332133.083315l.118156.029639.294.077.066383.017672c.034455.009133.068896.018301.103321.027505l.123296.032823.125734.034448c.031873.008698.063726.017425.095567.026182l.070699.01937.034455.009676c.164215.045552.328081.091914.491594.13908l.056951.016244.098563.028889c.033043.009648.066072.019329.099086.029043l.092351.027068.04828.014534c.15381.045748.307302.092209.460471.13938l.069249.021086.288.09.1747.056002c.008395.002688.016788.005378.02518.008071l.08712.027927.286.093.286.095.285.097.097907.03413c.230464.079593.46014.16081.689014.243636l.062079.022234.059355.02189c.123267.044971.246301.09041.369098.136313l.134547.049797.28.107.279.108.114925.045474c.050265.019794.100489.039667.150672.059618l.012403.004908.009295.003725c.069264.027575.138449.055299.207555.083172l.06015.024103.277.113.086497.03604c.141797.058716.283254.118061.424368.17803l.040135.01693.035188.015154c.166038.070885.331599.142637.496677.215249l.015135.006597.014323.006372c.175411.077293.350276.155557.524585.234786l.004092.001842.006334.002898c.068792.031287.137497.062724.206115.094311l.058551.026791.269.125.269.127.268.129.087706.042864c.05819.028298.1163.056698.174345.085206l.003949.00193.001975.00098c.234749.115335.468422.232444.701001.351311l.092024.046709.071856.037431c.144861.074715.289293.150113.433293.226189l.019851.01038.262.139.26.141.063748.034951c.046769.025543.093482.051155.140149.076838l.055103.030211.028272.015779c.161446.089259.322325.179379.482629.270355l.005099.002866.01158.006604c.049456.028093.098857.056267.148204.084523l.096216.054873.127824.074188c.018186.01054.036364.02109.054534.031651l.072642.042161.034497.020292c.471301.275521.937485.558498 1.398379.848763l.078124.048945.072442.046258c.129696.082334.258969.165247.387816.248734l.035742.023008.037204.024349c.146088.095024.291625.190787.436606.287285l.01719.011366.014084.009467c.230232.153492.459059.308837.686458.466012l.028458.019521.03943.027486c.062739.04352.12537.08718.18789.130978l.01368.009536.018167.012793c.044251.031051.088447.062172.132587.093363l.089246.062844.048054.034526c.119844.085298.239278.17111.358298.257433l.069648.050041.070793.052195c.114596.08373.228805.167936.342625.252613l.058582.043192.234.176.054639.041507c.032333.024499.064634.049037.096903.073613l.081458.06188.052108.040204c.203009.155707.40473.312935.605146.471665l.035746.028131.044305.035405c.058878.046831.117643.093792.176294.140881l.008401.006714.01245.010037c.037152.029862.07425.059769.111302.089728l.103248.083235.054355.044734c.115909.094513.231366.189535.346366.285063l.051279.042203.224.188.021272.01811c.140821.118859.280943.238482.420358.358862l.00237.002028.001994.00174c.12818.110705.255762.22205.382743.33403l.055263.04823.218.194.102728.092787c.170053.153091.338996.307335.506814.462717l.037458.034496.041341.038624c.055112.051253.110103.102629.164971.154127l.006688.006249.007048.006649c.051553.048425.102998.096958.154335.145599l.050617.047752.046824.044826c.174503.166252.347742.333754.519702.502493l.062474.060681.095555.095093c.091066.090175.181768.180698.272105.271567l.04534.04534.204.207.03818.039308c.219328.22435.436447.450763.651324.679206l.116496.123486.146552.158395c.006974.007533.013946.015067.020915.022605l.030533.033.027017.029348c.010272.011148.020539.022301.0308.033458l.139183.151194.102713.113775c.219014.241685.435565.485532.649615.731505l.021672.02472.033939.039298c.042696.049236.085291.098557.127786.147963l.028275.032739.189.221.055523.066212c.0807.095484.161029.191277.240983.287376l.077494.092412.185.225.110604.136593c.023877.029417.047719.058861.071527.088334l.000869.001073.000283.000353c.293983.363962.582671.732163.865949 1.104492l.030768.040155.056711.075182c.022106.029238.04418.058501.06622.08779l.052069.069028.030935.041602c.219771.293796.436195.590112.649219.888894l.006846.009504.007774.011013c.102843.144405.204892.289386.30614.434937l.021086.03005.021332.031028c.098292.141769.195827.284076.292597.426916l.015071.022056.013467.020118c.151656.224368.301427.450047.449293.677015l.02024.030867.158.244.051985.081977c.136334.213388.270988.427886.40395.643484l.009065.014539.011408.018688c.083514.135667.166359.271769.248529.408301l.043063.071011.149.25.05302.090891c.115732.196755.230069.394378.343.59286l.04198.073249.143.254.092911.16803c.003481.006293.006962.012587.01044.018882l.037649.068088.016053.029353c.031717.057711.063316.115493.094797.173344l.02915.053303.139.257.08236.156242c.044417.083842.088587.167828.132509.251957l.057131.108801.043505.085048c.156177.30254.309155.606902.458894.91305l.022601.045902.020469.042389c.072172.14834.143584.297099.214232.446269l.018299.038342.018975.040551c.065376.138704.130091.277763.194142.417173l.033883.073276.121.266.119.268.021912.049767c.007452.016898.014894.0338.022326.050707l.073762.167526.116.269.066762.158122c.010386.024537.02075.049086.031095.073644l.016143.038234.008286.019871c.027403.065304.054658.130667.081769.196101l.022945.055028.018507.045352c.049972.121407.099448.24306.148426.364954l.054067.133694.050183.128038c.035144.089009.070022.178145.104634.267408l.059183.151554.104.275.027458.073578c.013931.037183.027815.074386.041653.111612l.033889.09081.101.276.02497.069866c.052598.145923.10449.292168.155672.438731l.016358.046403.019157.055676c.023065.066542.045984.133149.068756.199821l.008087.023503.005859.01739c.049753.146108.098802.292526.147143.439252l.033998.102358.091.281.089.282.028064.090967c.018217.058636.036322.117319.054313.176049l.004623.014984.005759.018951c.013482.04413.026901.088288.040256.132472l.039985.131577.084.284.082.285.015185.054097c.042142.148432.083567.297151.124273.446155l.019542.070748.077.287.075.287.033123.130677c.009078.035637.018115.071291.027111.10696l.012766.050363.072.289.032876.137699c.034383.142668.06811.285581.101178.428735l.002946.012566.002758.012161c.030884.134035.061191.268282.090917.402738l.037325.167101.062.292.061.293.025152.12706c.040255.200375.079225.401195.116901.602452l.028947.152488.053.295.022566.130974c.017573.100898.034821.201904.051743.303015l.026691.158011.019915.125843c.039361.244453.07682.489516.112363.735175l.004722.031982.004768.033942c.011898.083077.023578.166223.035038.249435l.002194.015623.001775.013266c.017977.131147.035409.262461.052292.39394l.024933.191794.036.301.009536.08442c.015274.131935.029997.264031.044166.396287l.013298.121293.010607.107133c.015163.148412.02963.297021.043396.445827l.004997.05204.027.304.025.303.011699.162187c.011015.14724.021345.294663.030987.442268l.000314.004545.000349.005621c.006111.093866.011944.187804.017498.281815l.001153.018564.001138.020485c.004887.083904.009552.167866.013994.251884l.001868.033631.001838.037498c.003745.072931.007323.145904.010732.21892l.00243.049582.002193.051777c.003051.068525.005954.137086.008709.205685l.002098.049538.001744.048675c.002682.070428.005207.140895.007575.2114l.001681.046925.001294.044277c.002423.076565.004662.153176.006716.229831l.00099.033892.000714.031431c.002144.084366.004062.168786.005756.253259l.00053.02331.00035.021631c.00176.092144.003252.184351.004476.27662l.000174.010749.000097.010019c.001275.099457.002239.198987.00289.298588l.000013.001393.000004.001353c.000664.102474.000996.205023.000996.307647 0 .102293-.00033.204512-.000989.306655l-.000011.003345-.000034.003466c-.00065.098542-.001606.197014-.002868.295415l-.000098.010119-.000174.010747c-.001224.092271-.002716.184479-.004476.276624l-.00035.021629-.00053.023298c-.001693.084485-.003612.168908-.005756.253277l-.000714.031425-.00099.033884c-.002054.076662-.004293.15328-.006717.229853l-.001293.044263-.001768.049506c-.002191.065127-.004516.130221-.006974.195282l-.002258.063212-.002765.06509c-.002508.061902-.005137.123774-.007886.185616l-.002349.055294-.002601.053244c-.003067.065575-.00627.131116-.009607.196623l-.002792.057133-.003071.05528c-.003677.068911-.007503.137783-.011479.206617l-.00245.044103-.0023.036918c-.005202.087448-.010646.174834-.016331.262156l-.000369.005926-.000327.004754c-.009271.141911-.019178.283654-.029718.425227l-.012955.179019-.025.304-.027.303-.005458.057023c-.013237.14292-.027119.28566-.041645.428218l-.011897.119759-.015724.143901c-.005428.05043-.010936.100837-.016524.151221l-.000752.006878-.000736.006515c-.005943.053437-.011976.106847-.018099.160231l-.015165.134254-.036.3-.024759.190454c-.015329.119402-.03111.238668-.047341.357797l-.0069.051749-.008925.063324c-.00902.064993-.018174.129945-.027463.194855l-.005612.039821-.005482.037251c-.010292.071084-.020746.142117-.031359.213101l-.007159.048648-.005634.036377c-.021899.144636-.044463.289063-.067688.433277l-.019678.124346-.05.297-.051.296-.053.295-.034391.180551c-.033974.180847-.068992.361336-.105048.541465l-.031561.159984-.061.292-.062.292-.065.292-.007589.033346c-.018393.081838-.036999.163593-.05582.24527l-.002591.011384-.002163.009224c-.029949.1297-.06044.259201-.091468.388502l-.043369.182274-.072.289-.073.288-.075.287-.077.287-.079.286-.08.285-.082.284-.084.284-.035729.117575c-.016208.053683-.03251.107328-.048906.160933l-.001365.004492-.002049.006666c-.010677.034875-.021393.069732-.032148.104573l-.052803.171761-.089.281-.091.281-.030228.091008c-.04163.126467-.083786.252707-.126465.378716l-.030307.090276-.096.279-.040697.115031c-.035696.101703-.071734.203253-.108113.304648l-.04819.135321-.101.276-.103.276-.104.274-.052653.13483c-.031407.081092-.063033.162079-.094878.242961l-.066469.170209-.11.272-.111.272-.061326.146532c-.038422.09218-.07713.184218-.116124.276112l-.04955.117356-.116.269-.118.269-.119.267-.121.267-.123.266-.048414.103074c-.019879.042488-.039819.084942-.059822.127364l-.015764.033562-.008136.017047c-.062737.132644-.126079.264962-.190022.396951l-.054842.114002-.129.262-.035226.070183c-.073538.147806-.147834.295189-.222883.442145l-.004891.009672-.133.26-.080447.152612c-.042461.081122-.085153.162111-.128075.242966l-.063478.120422-.139.257-.009012.01648c-.074003.136283-.148662.272178-.223971.407682l-.048017.086838-.143.254-.05223.091492c-.015712.027587-.031449.055155-.047213.082705l-.045557.079803-.032859.056715c-.032788.056864-.06569.113655-.098708.170373l-.014433.024912-.022108.037749c-.017627.030174-.035287.060328-.052979.090461l-.071913.12279-.149.251-.151.249-.022087.036037c-.184809.30345-.37296.604749-.564403.90385l-.03051.048113-.158.245-.063548.096513c-.188053.287619-.37917.57316-.573306.856578l-.010146.014909-.010767.015596c-.104455.15224-.20978.303867-.315971.454873l-.005262.007531-.004715.006651c-.209715.297993-.422786.593552-.639171.886641l-.037114.050708-.056499.075656c-.208593.280615-.420233.558947-.63487.834952l-.012631.016392-.046147.059037c-.010091.012923-.020188.025841-.030292.038754l-.102561.131209-.181.228-.032513.040373c-.095924.119964-.192422.239474-.289488.358524l-.042999.053103-.185.225-.081773.097953c-.031831.038248-.06372.076447-.095669.114597l-.009558.01145-.006599.007834c-.04899.058439-.098119.116762-.147385.174971l-.033016.039195-.026374.030839c-.089156.104936-.178763.209495-.268817.313677l-.083809.097484-.192.219-.027331.030872c-.050834.057693-.101806.115267-.152915.172722l-.012754.014406-.018293.020462c-.032781.03678-.065619.07351-.098513.110192l-.077194.086346-.195.215-.197.215-.198.213-.036637.038835c-.115644.12354-.231942.246489-.348888.368843l-.015475.016322-.013596.014068c-.161492.168668-.324218.336202-.488165.50259l-.107239.109342-.206.206-.077296.076549c-.021581.021413-.043183.042806-.064805.064179l-.064899.064272-.03032.029594c-.109761.107908-.220046.215311-.330849.322206l-.056831.0552-.063156.060163c-.313615.300504-.631334.596942-.953077.889237l-.049767.0456-.086717.077926c-.040787.036775-.081638.073484-.122552.110127l-.007731.006947-.004798.004269c-.068817.061591-.137815.122993-.206993.184206l-.006209.005525-.004484.003934c-.124771.110341-.250121.220064-.376048.329167l-.059468.051899-.077508.066336c-.088692.076272-.177667.152239-.266926.227898l-.099566.084766-.098576.082293c-.240085.201344-.482186.400474-.726268.597356l-.078156.063351-.061052.048522c-.12203.097705-.244552.19485-.367559.291431l-.030389.024047-.059888.046666c-.035326.027604-.070691.055161-.106097.082673l-.065015.050661-.035906.027548c-.584693.451904-1.180167.891157-1.785983 1.317332l-.065111.04612-.055593.038523c-.13989.097786-.280327.194877-.421306.291267l-.006101.00421-.009142.006208c-.077302.05281-.154766.105409-.232391.157796l-.001467.000996-.000896.000598c-.151347.102128-.303309.203451-.455881.303964l-.032223.021438-.246.161-.247.159-.029777.018894c-.142866.091404-.286249.182105-.430144.272096l-.038079.02401-.076139.047206c-.032839.020414-.065705.04079-.098596.06113l-.075265.046664-.055003.033613c-.061516.037778-.123122.075426-.184819.112945l-.012178.007442-.008842.005333c-.14719.089408-.294899.178081-.443122.266013l-.053036.031654-.035147.020537c-.225879.133371-.452947.265024-.681182.394941l-.049671.028522-.060024.033735c-.66333.375352-1.336463.736058-2.018937 1.081665l-.007039.0036-.008477.004254c-.502576.254286-1.010213.500385-1.522725.738116l-.071798.03363-.054113.024561c-.231173.106446-.463331.211193-.696458.314222l-.063429.028217-.067986.029635c-.066136.029-.13235.057863-.198641.086587l-.006373.002778-.007138.003074c-.058788.025452-.117634.050795-.17654.076028l-.090322.038898-.114396.048254c-.032539.013767-.065097.0275-.097673.0412l-.062931.026546-.023171.009571c-.258334.108074-.517805.214059-.778392.317931l-.028437.011498-.031959.012531c-.995232.395202-2.006686.759613-3.033108 1.092015l-.040933.013454-.040609.012876c-.448295.144326-.899434.28255-1.353313.41457l-.049078.014554-.085931.024509c-.145535.041888-.291351.083138-.437443.123747l-.059626.016744-.037003.010011c-.17064.047064-.341657.093254-.513044.138565l-.034953.009424-.042527.010993c-.566104.148695-1.136234.287803-1.710194.417135l-.021279.004872-.026314.005828c-.087792.019692-.175661.039154-.26362.058385l-.008066.001787-.005379.001151c-.492243.107487-.987262.207792-1.484935.300797l-.010686.002052-.012831.002337c-.278573.051922-.557953.101553-.838142.148876l-.057027.009787-.077438.012737c-.052624.008741-.105276.017401-.157956.025979l-.068606.011284-.044923.00707c-.690774.110864-1.386375.207718-2.086485.290253l-.013592.001677-.018384.002082c-.180936.021214-.362173.041471-.543705.060766l-.055911.006152-.051748.005175c-1.105109.115074-2.221104.194513-3.346746.237112l-.041506.001713-.031313.000991c-.620708.022605-1.24434.034009-1.870687.034009-.62409 0-1.245484-.011322-1.863977-.033765l-.039023-.001235-.052977-.002186c-.822939-.031345-1.640709-.082379-2.452837-.152632l-.002186-.000182-.002008-.000181c-.284619-.024645-.568545-.05165-.851757-.080995l-.078235-.007824-.086656-.009535c-.160753-.017189-.321276-.035132-.481562-.053826l-.049782-.005639-.035712-.004406c-.39418-.046653-.78693-.097845-1.178192-.153522l-.015096-.002072-.0184-.002706c-.19487-.027863-.389361-.056838-.583475-.086918l-.009125-.001376-.018971-.002986c-.059512-.009256-.118981-.018615-.178414-.028078l-.107615-.016936-.304-.05-.1531-.026275c-.022616-.003865-.045227-.007745-.067833-.011641l-.082067-.014084-.033308-.005936c-.170819-.029846-.341333-.060551-.511538-.092109l-.060154-.010955-.042362-.008163c-.275773-.051725-.55073-.105691-.824851-.16188l-.034787-.006957-.049462-.010387c-.182093-.037651-.363815-.076282-.545161-.115888l-.003377-.000725-.004182-.000926c-.090653-.019813-.181211-.03987-.271675-.06017l-.022143-.004904-.022753-.005192c-.087492-.019717-.174894-.039662-.262208-.059833l-.013039-.002975-.00759-.001795c-.479529-.110994-.956349-.22882-1.430347-.353366l-.038063-.009839-.03134-.00845c-.160165-.042331-.320007-.085429-.479521-.129291l-.075139-.020259-.124101-.03497c-.127207-.035546-.254204-.071578-.380989-.108093l-.07691-.021937-.054514-.016111c-.164927-.047991-.329493-.096802-.493691-.146428l-.031795-.009461-.034591-.010653c-.240016-.072904-.479245-.147548-.717673-.223918l-.111736-.035429-.114371-.037591c-.14976-.048758-.299199-.098198-.448316-.148315l-.009313-.003094-.009605-.003269c-.167287-.0563-.334167-.113453-.500634-.171454l-.058761-.020277-.104699-.036996c-.028481-.010035-.056949-.020094-.085405-.030179l-.092896-.032825-.043544-.01575c-.161373-.057717-.322352-.116233-.48293-.175544l-.037526-.013706-.040435-.015163c-.333382-.12377-.665031-.250966-.994902-.381542l-.082663-.032295-.098856-.03997c-.239369-.095842-.477785-.193464-.715239-.292851l-.014905-.006179-.024351-.010272c-.058603-.024587-.117147-.049282-.175632-.074085l-.075017-.031643-.063406-.027306c-.147559-.063105-.29474-.126894-.44154-.191363l-.042054-.018331-.091668-.040629c-.013812-.006114-.02762-.012235-.041425-.018361l-.139907-.06201-.059559-.027032c-.142483-.063982-.2846-.128606-.426347-.193869l-.055094-.025099-.085723-.040004c-.060469-.028071-.120869-.056258-.181202-.084561l-.003075-.001435-.002667-.001259c-.069728-.032722-.139364-.065599-.208909-.09863l-.057424-.027111-.033966-.01641c-.239767-.114482-.47844-.230804-.715999-.348949l-.050035-.024641-.265-.133-.132147-.067575c-.032457-.016552-.064885-.033135-.097293-.049752l-.03456-.017673-.021259-.010993c-.064119-.03298-.128143-.066087-.192082-.099328l-.049659-.025679-.035304-.018595c-.407484-.212842-.811542-.431102-1.212071-.654683l-.053625-.029722-.081833-.046171c-.041026-.023069-.082015-.046195-.122966-.069377l-.052201-.029452-.037477-.021436c-.068382-.038898-.13666-.077952-.204832-.117161l-.014691-.008403-.01077-.006251c-.161428-.092972-.322264-.186815-.482502-.281523l-.015728-.009226-.029709-.017662c-.042174-.024987-.084305-.050034-.126395-.07514l-.097896-.058198-.252-.152-.125081-.076743c-.036062-.022062-.072093-.044169-.108092-.066319l-.017827-.010938-.033697-.020809c-.010893-.006721-.021783-.013446-.03267-.020175l-.184633-.114016-.249-.157-.023613-.015044c-.135923-.086069-.271384-.172773-.406378-.260108l-.065009-.041848-.247-.161-.123752-.082333c-.092725-.061382-.185224-.123065-.277496-.185046l-.087752-.058621-.243-.165-.106172-.073268c-.068542-.047111-.136955-.094388-.205239-.14183l-.171589-.118902-.102646-.073012c-.115338-.081298-.2303-.16307-.344883-.245314l-.030471-.021674-.238-.172-.236-.173-.038549-.028707c-.14374-.106161-.286862-.213073-.429363-.320729l-.002088-.001564-.003416-.002595c-.066024-.049894-.131915-.099948-.197671-.150162l-.031913-.024243-.232-.178-.231-.18-.23-.182-.019492-.015559c-.061141-.048569-.122151-.09727-.183038-.14611l-.02547-.020331-.038081-.030732c-.033423-.026901-.066809-.053844-.100158-.080829l-.089761-.072439-.226-.185-.031605-.026267c-.129386-.10666-.258199-.213957-.386435-.321887l-.03096-.025846-.223-.189-.222-.19-.22-.192-.010808-.009525c-.121055-.105865-.241569-.212305-.361537-.319315l-.065655-.05816-.099745-.090048c-.035411-.031875-.070775-.0638-.10609-.095775l-.010165-.009177-.004921-.004488c-.132724-.120272-.264766-.241247-.396119-.362921l-.02996-.027591-.033185-.031004c-.116368-.108173-.232193-.216895-.34747-.326161l-.044345-.041835-.211-.201-.209-.203-.017443-.017107c-.100989-.098373-.201541-.197169-.301654-.296388l-.096903-.095505-.205-.206-.205-.208-.039834-.041011c-.097056-.099291-.19368-.198986-.289868-.299081l-.075298-.077908-.097246-.102568c-.168039-.176665-.334729-.354563-.500053-.533678l-.000701-.000754-.000682-.000744c-.097694-.105852-.19491-.212128-.291647-.318826l-.100671-.11043-.194-.217-.193-.218-.133977-.153618c-.000663-.00076-.001325-.001519-.001988-.002279l-.055035-.063103-.02011-.023269c-.044873-.051699-.089635-.103492-.134286-.155378l-.036604-.042353-.189-.221-.187-.222-.060384-.07272c-.16308-.195384-.324612-.39204-.484578-.58995l-.010038-.01233-.182-.226-.181-.228-.179-.229-.061369-.079641c-.083787-.108109-.167114-.216573-.249979-.32539l-.043652-.056969-.175-.232-.174-.233-.08685-.118661c-.079602-.108213-.158753-.21676-.23745-.325641l-.0187-.025698-.026274-.036629c-.037781-.052448-.075457-.104972-.113027-.157573l-.030699-.042798-.04849-.068406c-.013696-.019291-.027379-.038593-.041047-.057905l-.078463-.110689-.167-.239-.165-.239-.164-.241-.052774-.078509c-.019424-.028829-.038817-.057679-.058178-.08655l-.051048-.075941-.034039-.051375c-.042294-.063506-.084439-.127115-.126432-.190827l-.000529-.000798-.003183-.004834c-.005866-.008903-.011721-.017795-.017573-.026689l-.139244-.211477-.158-.245-.066865-.105441c-.078863-.123594-.157163-.247562-.234899-.3719l-.009236-.014659-.014038-.022607c-.035745-.057291-.07137-.114661-.106874-.172109l-.033088-.053284-.152-.248-.079957-.132729c-.011716-.019416-.023417-.038841-.035106-.058275l-.034937-.057996-.01205-.020299c-.084549-.14119-.168378-.282839-.251481-.42494l-.033469-.056761-.146-.252-.145-.254-.143-.254-.141-.255-.046217-.084511c-.011512-.021012-.023008-.042034-.034488-.063064l-.059295-.108425-.034115-.063533c-.121537-.224843-.241291-.450737-.359245-.677666l-.01664-.031801-.02363-.045849c-.023442-.045304-.046812-.090649-.07011-.136034l-.04026-.078117-.028995-.057331c-.057576-.113054-.114707-.226361-.17139-.339917l-.062615-.124752-.129-.262-.096236-.20005c-.010105-.020965-.020194-.041939-.030269-.062921l-.000495-.001029-.00016-.000336c-.031369-.065336-.06259-.130753-.093665-.196249l-.032175-.067415-.124-.264-.049406-.107722c-.089412-.193581-.177542-.387843-.264379-.582775l-.049215-.109503-.042847-.098511c-.099673-.226695-.1976-.454283-.293765-.682752l-.011388-.026737-.113-.27-.111-.272-.048045-.119893c-.015962-.039674-.031872-.079374-.047728-.1191l-.013227-.033007-.006812-.017283c-.089522-.225039-.177348-.450898-.263461-.677562l-.048727-.127155-.04203-.113727c-.038904-.104126-.077448-.20842-.115629-.312881l-.046341-.125392-.06899-.19373c-.023278-.06515-.046415-.130363-.069411-.195639l-.058599-.165631-.096-.279-.044137-.131472c-.033498-.099202-.066666-.19853-.099509-.297999l-.043354-.130529-.026925-.084066c-.03938-.121238-.078278-.242685-.116691-.364336l-.036384-.113598-.087-.283-.086-.283-.024421-.08356c-.038659-.130162-.076766-.26055-.114318-.391163l-.027261-.093277-.08-.285-.079-.286-.029307-.110673c-.030555-.11364-.06069-.227436-.090404-.341393l-.032289-.121934-.073-.288-.022158-.090191c-.062416-.25074-.122803-.502247-.181143-.754504l-.005699-.024305-.006988-.030704c-.015888-.069082-.031623-.13822-.047204-.207415l-.011808-.051881-.007786-.035524c-.035964-.16116-.071094-.322621-.105385-.484379l-.013829-.064097-.013909-.067688c-.08662-.414521-.167734-.830979-.243265-1.249298l-.027826-.152014-.051-.296-.006274-.038028c-.045663-.269192-.089017-.539139-.130042-.809818l-.006684-.043154-.008622-.058593c-.009637-.064546-.019142-.12913-.028513-.193756l-.006865-.046651-.007033-.0499c-.008341-.05838-.016573-.116791-.024698-.175236l-.010269-.072864-.007777-.058331c-.033753-.247981-.065555-.496558-.095389-.745715l-.011834-.095954-.016079-.142343c-.005514-.048145-.010955-.096311-.016322-.144499l-.001599-.014158-.001633-.014945c-.005-.045151-.009936-.090322-.014808-.135511l-.016559-.151544-.012319-.124009c-.014271-.140179-.027921-.280535-.040945-.421065l-.005736-.059926-.027-.303-.008737-.110668c-.021839-.264845-.041461-.53028-.058848-.796302l-.000415-.00603-.000468-.007517c-.005619-.086349-.011002-.172759-.016149-.25923l-.002383-.038253-.002539-.045704c-.003917-.067844-.007688-.135726-.011314-.203645l-.003147-.056651-.002856-.058447c-.003295-.0647-.006458-.129432-.009488-.194198l-.002656-.054355-.002394-.056359c-.002719-.061192-.00532-.122413-.007803-.183664l-.002803-.065977-.002284-.063942c-.002441-.064626-.00475-.129281-.006927-.193968l-.001789-.05009-.001306-.044701c-.002416-.076322-.004647-.152689-.006695-.2291l-.000999-.034199-.00072-.031682c-.00214-.08423-.004055-.168513-.005747-.25285l-.000533-.023468-.000352-.021762c-.001759-.092079-.00325-.184221-.004473-.276426l-.000175-.010812-.000099-.010176c-.001261-.098377-.002217-.196825-.002867-.295343l-.000034-.003481-.000011-.003359c-.000659-.102139-.000989-.204353-.000989-.306641 0-.10262.000332-.205164.000996-.307633l.000004-.001367.000014-.001407c.00065-.099578.001613-.199084.002888-.298518l.000098-.010075.000175-.010812c.001223-.092204.002714-.184345.004473-.276423l.000352-.021765.000533-.023462c.001692-.084343.003607-.168623.005747-.252849l.00072-.031689.001-.034207c.002047-.076404.004278-.152763.006693-.229078l.001307-.044715.001701-.047461c.002355-.070097.004865-.140156.00753-.210177l.001769-.049362.002131-.050323c.002733-.068016.005611-.135995.008636-.203937l.002233-.05274.002479-.050576c.003377-.072284.006918-.144527.010624-.216728l.001897-.038696.00193-.034733c.004401-.083204.00902-.166352.013858-.249444l.001212-.021823.001228-.019772c.005503-.093113.011281-.186156.017331-.279127l.000441-.007101.000397-.005741c.017711-.271009.037741-.541408.060072-.81118l.007531-.095079.027-.304.005241-.054582c.01359-.146807.027862-.293424.042811-.439848l.010948-.11057.013827-.126119c.013833-.128987.028193-.257823.043077-.386505l.010096-.089376.008996-.073182c.032179-.269916.066668-.539152.103445-.807687l.002559-.019131.003204-.022809c.010787-.078234.021768-.156409.032943-.234523l.005853-.041668.005802-.039298c.01222-.084358.024665-.168645.037336-.252862l.000862-.00584.000693-.004492c.044377-.294501.091511-.588136.141375-.880877l.000932-.005631.002857-.016584c.00743-.043491.01492-.086962.02247-.130414l.025673-.149002.017641-.096374c.078956-.440398.1641-.878739.25534-1.314934l.012019-.058692.014363-.06657c.055336-.26096.112856-.521147.172539-.780543l.006098-.026887.006577-.028049c.062617-.270644.127591-.540425.194898-.809321l.007525-.03063.073-.288.018523-.069949c.038726-.149235.078172-.298192.118335-.446868l.015142-.057183.026588-.096256c.036119-.131913.072802-.263603.110047-.395068l.022365-.079676.015457-.053075c.040882-.142688.082427-.285108.12463-.427258l.025913-.088667.086-.283.023367-.075741c.005501-.017868.01101-.035727.01653-.053581l.047103-.152678.02332-.073068c.041933-.133231.084447-.266215.12754-.398951l.02914-.090981.049578-.149267c.013052-.039473.026155-.078923.03931-.118352l.004112-.012381.002367-.007027c.024808-.074247.049796-.148414.074965-.222502l.016668-.049471.028074-.081589c.009453-.027557.018931-.055102.028434-.082636l.039492-.114775.02993-.084905c.021106-.060264.042331-.120474.063676-.180631l.004394-.012464.005326-.014901c.017333-.048753.034744-.09747.052234-.146152l.04144-.115947.022074-.059729c.05413-.148792.108996-.297249.164591-.445364l.017335-.046907.026395-.06913c.129045-.341044.26196-.680263.398697-1.017614l.002908-.007256.005845-.014323c.022-.054199.044098-.10835.066295-.162453l.03886-.095224.113-.271.016882-.039636c.101989-.242097.205956-.483205.311883-.723303l.019235-.044061.022061-.049268c.108307-.244059.21864-.48707.330978-.729013l.009961-.021719.028716-.061368c.013507-.028942.027042-.057869.040606-.08678l.054678-.116852.05007-.104908c.019096-.040157.038247-.080284.057454-.120381l.018476-.038711.019899-.041209c.01728-.0359.034602-.071771.051968-.107618l.055133-.114173.129-.262.022331-.044662c.162719-.327545.329158-.653019.499261-.976371l.010408-.019967.013824-.026034c.040714-.077187.081631-.154241.122755-.231173l.000421-.000793.000641-.001194c.027144-.050772.054373-.101482.081693-.152138l.055666-.103668.14-.256.141-.255.143-.254.092074-.160653c.015673-.02741.031367-.054794.047089-.082162l.005837-.010185.001938-.003344c.224961-.391316.455398-.779254.691211-1.163716l.051851-.08494.03701-.05936c.106017-.171477.213105-.342256.321256-.512329l.106734-.168311.158-.244.16-.244.023661-.035564c.08236-.124715.165298-.249034.24881-.372955l.050529-.075481.06032-.088273c.066202-.097365.132759-.194482.19967-.291349l.06901-.100378.06761-.096354c.071014-.101718.142419-.203156.214214-.304313l.053176-.075333.044024-.061115c.094968-.132825.190609-.265161.286918-.397003l.010058-.013882.017883-.024329c.037573-.05133.075247-.102584.113022-.153763l.041095-.055908.174-.234.175-.232.177-.231.012962-.016749c.095367-.123944.191336-.247423.287903-.370436l.056135-.071815.073027-.09199c.022661-.028611.045354-.057197.068079-.085757l.039894-.050253.043684-.054486c.018687-.02335.037394-.046683.056124-.069999l.082192-.102515.069718-.085632c.032102-.039556.064266-.079062.096492-.118518l.01779-.02185.013659-.016612c.045547-.055647.091212-.111186.137001-.166623l.03434-.041765.030042-.036018c.070893-.085468.142082-.170695.213564-.255678l.129394-.154304.189-.221.060538-.06973c.103701-.120315.207997-.240128.312884-.359435l.008578-.009835.011688-.013201c.105485-.119834.211567-.239156.318241-.357962l.057071-.063837.074199-.081771c.026524-.029302.053084-.058571.079679-.087809l.042122-.04642.017997-.01955c.117492-.12869.235685-.256761.354572-.384206l.022431-.024244.199-.212.080159-.084147c.0323-.034005.06465-.067964.097049-.101878l.023792-.024975.017553-.018248c.049213-.051386.098528-.102655.147957-.153817l.03649-.037935.203-.209.099256-.100224c.089702-.091023.17977-.181701.2702-.272035l.040544-.040741.067837-.067185c.027007-.026809.054045-.053588.081115-.080335l.059048-.05848.029622-.02891c.110123-.108258.220773-.216009.331944-.323248l.055434-.053842.211-.202.212-.2.213-.199.215-.198.051051-.046324c.089789-.082086.179895-.163848.270314-.245285l.110635-.100391.219-.194.024806-.021748c.115627-.102132.231754-.203738.348378-.304813l.065816-.057439.088586-.075817c.186726-.160479.374711-.319603.563939-.477355l.016475-.013828.016763-.013858c.098856-.082265.198051-.164157.297581-.245673l.136656-.112469.123637-.099235c.078422-.063341.157049-.12645.235881-.189325l.096482-.07744.23-.181.231-.18.232-.179.233-.177.235-.176.035309-.026143c.08855-.065956.177336-.131626.266357-.197009l.169334-.124848.161777-.116235c.09707-.070063.194413-.139786.292028-.209169l.023195-.016596.239-.169.241-.168.242-.166.044161-.029986c.053735-.036642.107548-.073182.16144-.109619l.037399-.025395.244-.164.245-.162.081522-.053138c.179648-.117641.360134-.23416.541447-.349548l.119031-.076314.249-.156.066342-.040968c.132717-.082542.265863-.164478.399438-.245809l.03622-.022223.05137-.030985c.059432-.036019.118947-.071917.178547-.107695l.022083-.01332.014555-.008653c.12851-.076995.25741-.153432.386697-.229307l.106748-.06304.255-.148.154175-.087586c.119393-.068152.239107-.135828.359139-.203027l.000686-.000387.001816-.001013c.035689-.019978.071405-.039912.107149-.059805l.149035-.083182.259-.142.261-.141.261-.139.123773-.064721c.07118-.037391.142465-.074616.213855-.111675l.187372-.097604.264-.134.062833-.031535c.059646-.030087.119363-.060058.17915-.089913l.023017-.011552.032488-.016122c.037065-.018451.074156-.036857.111273-.055218l.122239-.06066.267-.13.267-.129.269-.127.27-.125.074019-.033994c.015898-.007311.031787-.014608.04768-.021898l.148301-.068108.271-.122.04259-.018877c.252202-.112563.505546-.223113.760011-.33163l.017399-.007493.01963-.00828c.125157-.053254.250585-.106015.376281-.158283l.154089-.064437.277-.113.277-.111.279-.11.279-.108.28-.107.28-.104.04361-.016083c.010915-.00403.021832-.008056.03275-.012078l.20564-.075839.282-.101.025995-.009186c.072624-.025852.145328-.051542.218111-.077071l.038894-.013743.284-.099.285-.097.286-.095.286-.093.287-.092.288-.09.289-.088.050648-.015247c.021737-.00656.04348-.013105.065229-.019636l.173123-.052117.291-.085.049586-.014143c.145697-.042051.291675-.083463.43793-.124233l.094484-.026624.293-.08.108237-.028814c.044321-.011864.088667-.02367.133038-.035416l.051725-.01377.294-.077.152882-.038481c.084251-.021376.16859-.042541.253015-.063493l.184103-.046026.296-.071.118693-.027668c.156504-.036799.3133-.07287.470382-.108208l.004925-.001124.004836-.001071c.123574-.027774.247325-.055095.371252-.081962l.219912-.047967.3-.062.3-.061.301-.059.301-.057.302-.056.303-.053.050301-.008633c.043534-.00753.087088-.015005.130662-.022423l.122037-.020944.304-.05.093419-.014702c.068669-.010953.137387-.021768.206151-.032443l.00543-.000855.013034-.002008c.025065-.003882.050136-.007746.075214-.011591l.216752-.033401.306-.044.031706-.004455c.046665-.006625.093351-.013185.140058-.019682l.134236-.018863.307-.041.308-.039.308-.037.309-.036.309-.033.31-.032.172594-.016094c.407877-.038958.817207-.073065 1.227929-.102261l.158477-.011645.313-.02.093219-.005344c.138518-.008301.27719-.016044.416013-.023226l.118768-.00643.109137-.004851c.15595-.00737.312089-.014032.468414-.019984l.052449-.002165.316-.011.316-.009.163095-.003087c.368325-.007928.73764-.011913 1.107905-.011913.372642 0 .744323.004036 1.114998.012066zm180.084145 398.498437-65.623143 78.976497-.006.008-6.826 6.759-7.8 5.219-8.497 3.634-8.919 2.013-9.07.357-8.948-1.336-8.552-3.064-7.877-4.823-.016-.012-6.698-6.359-5.174-7.467-3.608-8.297-2.004-8.853-.366-9.136 1.31-9.148 3.02-8.886 4.762-8.343 14.170772-20.038616-.539772-.022384-.085-.005-1.058-.046-.086-.006-1.055-.046-.087-.006-1.053-.048-.088-.007-1.05-.049-.089-.007-1.047-.051-.09-.007-1.044-.052-.092-.007-1.04-.054-.093-.007-1.038-.056-.094-.007-1.035-.057-.095-.008-1.032-.058-.096-.008-1.029-.06-.098-.009-1.025-.061-.099-.009-1.022-.063-.101-.009-1.019-.064-.102-.009-1.016-.067-.103-.009-1.013-.068-.104-.01-1.009-.069-.107-.01-1.005-.071-.108-.011-1.003-.072-.109-.011-.999-.074-.11-.011-.996-.076-.112-.011-.993-.078-.113-.012-.989-.079-.115-.012-.986-.081-.116-.013-.982-.082-.118-.013-.979-.084-.12-.014-.975-.086-.121-.013-.972-.088-.123-.014-.968-.09-.124-.014-.965-.091-.126-.016-.961-.092-.128-.016-.957-.095-.13-.016-.953-.096-.132-.017-.949-.098-.134-.017-.946-.1-.135-.018-.942-.101-.137-.019-.939-.103-.139-.019-.934-.105-.141-.02-.931-.107-.143-.02-.927-.109-.145-.021-.923-.111-.147-.021-.919-.113-.149-.022-.915-.114-.151-.023-.911-.116-.153-.024-.907-.118-.155-.025-.904-.12-.157-.025-.899-.122-.16-.026-.895-.124-.162-.026-.891-.126-.164-.028-.887-.127-.166-.029-.883-.13-.169-.029-.878-.132-.171-.03-.875-.133-.173-.032-.871-.135-.176-.032-.866-.138-.178-.033-.862-.14-.181-.034-.857-.142-.184-.035-.853-.144-.186-.036-.849-.146-.189-.037-.844-.148-.192-.039-.84-.149-.195-.041-.835-.151-.197-.042-.831-.153-.144-.031-.608-.114-.087-.019-.607-.115-.089-.019-.606-.115-.089-.02-.606-.116-.09-.02-.604-.117-.092-.02-.603-.118-.092-.021-.603-.118-.093-.021-.602-.12-.094-.021-.6-.121-.096-.021-.599-.121-.096-.023-.599-.121-.097-.023-.598-.123-.098-.023-.597-.123-.099-.024-.596-.124-.1-.024-.595-.125-.101-.024-.594-.127-.102-.024-.593-.127-.103-.025-.592-.128-.104-.026-.591-.129-.105-.025-.591-.13-.106-.027-.589-.13-.107-.027-.589-.132-.108-.027-.587-.133-.109-.027-.587-.134-.11-.028-.586-.134-.11-.029-.586-.135-.111-.029-.585-.137-.112-.029-.584-.138-.113-.03-.583-.138-.114-.031-.582-.139-.115-.031-.581-.14-.116-.032-.581-.141-.117-.032-.579-.143-.118-.032-.579-.144-.119-.033-.577-.144-.12-.034-.577-.145-.121-.034-.576-.147-.122-.035-.575-.148-.123-.034-.574-.149-.124-.036-.573-.15-.125-.036-.573-.151-.125-.037-.572-.152-.126-.037-.571-.154-.127-.037-.571-.155-.128-.038-.57-.156-.128-.038-.569-.157-.13-.04-.568-.158-.131-.04-.567-.159-.132-.04-.566-.16-.133-.042-.566-.161-.133-.042-.565-.162-.134-.043-.564-.164-.135-.042-.564-.166-.135-.043-.563-.166-.136-.044-.563-.168-.137-.045-.562-.168-.137-.046-.561-.17-.139-.046-.56-.171-.139-.047-.56-.172-.14-.047-.559-.174-.141-.048-.558-.175-.142-.049-.557-.176-.143-.049-.556-.178-.143-.049-.557-.179-.143-.051-.556-.18-.144-.051-.555-.182-.145-.052-.555-.182-.145-.053-.554-.184-.147-.053-.553-.186-.147-.054-.552-.187-.148-.054-.268-.091-.283-.099-.148-.055-.55-.193-.149-.056-.549-.195-.15-.056-.549-.196-.15-.057-.548-.197-.151-.058-.547-.199-.152-.058-.546-.201-.152-.059-.546-.201-.153-.06-.545-.203-.154-.061-.545-.204-.153-.062-.545-.205-.154-.062-.544-.208-.154-.062-.543-.209-.156-.064-.542-.21-.156-.064-.542-.212-.156-.065-.542-.213-.156-.065-.541-.215-.157-.066-.541-.217-.157-.067-.54-.217-.158-.068-.539-.219-.159-.069-.539-.221-.158-.069-.539-.222-.159-.07-.537-.224-.16-.07-.537-.226-.16-.071-.537-.227-.16-.072-.536-.229-.161-.072-.536-.231-.161-.073-.535-.232-.161-.074-.535-.234-.161-.074-.534-.236-.162-.075-.534-.237-.162-.076-.533-.239-.163-.076-.532-.241-.163-.077-.532-.242-.163-.078-.532-.244-.163-.078-.531-.246-.164-.079-.53-.247-.164-.08-.53-.249-.164-.081-.53-.25-.164-.082-.529-.252-.164-.082-.529-.254-.165-.083-.528-.256-.165-.083-.528-.257-.164-.085-.528-.259-.165-.085-.527-.261-.164-.085-.527-.263-.165-.086-.527-.265-.164-.087-.526-.266-.165-.087-.526-.268-.165-.089-.525-.269-.165-.089-.525-.272-.165-.09-.524-.273-.165-.09-.524-.276-.165-.091-.524-.277-.165-.091-.523-.279-.165-.092-.523-.281-.165-.093-.522-.283-.165-.093-.522-.285-.165-.094-.522-.286-.164-.095-.522-.288-.164-.095-.522-.291-.164-.096-.521-.292-.164-.096-.521-.294-.164-.097-.52-.296-.164-.098-.52-.298-.163-.098-.52-.3-.163-.099-.52-.302-.163-.099-.519-.304-.163-.1-.519-.306-.162-.1-.519-.308-.162-.101-.519-.31-.162-.101-.518-.312-.162-.102-.517-.314-.162-.103-.517-.315-.162-.104-.517-.317-.161-.104-.517-.32-.161-.104-.516-.322-.161-.105-.516-.324-.16-.105-.516-.326-.16-.106-.516-.328-.159-.106-.516-.33-.159-.107-.515-.332-.159-.107-.515-.334-.158-.108-.515-.337-.158-.107-.515-.339-.157-.108-.515-.341-.157-.109-.514-.343-.156-.109-.514-.345-.157-.11-.513-.347-.156-.11-.514-.349-.155-.111-.514-.351-.154-.111-.514-.354-.154-.111-.513-.356-.154-.111-.513-.359-.153-.111-.513-.361-.153-.112-.512-.363-.153-.112-.512-.365-.152-.113-.512-.367-.151-.113-.512-.369-.151-.114-.512-.371-.15-.114-.512-.374-.15-.114-.512-.376-.149-.114-.511-.379-.149-.114-.511-.381-.148-.115-.511-.383-.148-.115-.511-.385-.146-.116-.512-.387-.146-.116-.511-.39-.145-.116-.511-.392-.145-.116-.511-.395-.144-.116-.511-.397-.143-.116-.511-.4-.143-.116-.511-.402-.142-.117-.511-.404-.141-.117-.511-.406-.141-.117-.51-.409-.14-.118-.511-.411-.139-.117-.511-.414-.139-.118-.51-.416-.138-.117-.511-.419-.137-.118-.511-.421-.137-.118-.51-.423-.136-.118-.51-.426-.136-.118-.51-.429-.135-.118-.51-.431-.134-.118-.51-.434-.134-.118-.51-.436-.133-.118-.51-.439-.132-.118-.51-.441-.131-.118-.51-.444-.131-.118-.51-.446-.13-.119-.51-.448-.13-.119-.51-.451-.128-.118-.51-.454-.128-.119-.51-.456-.128-.118-.51-.459-.126-.118-.51-.462-.126-.118-.51-.464-.125-.119-.511-.466-.124-.119-.51-.469-.124-.118-.51-.472-.123-.118-.511-.475-.122-.118-.51-.477-.121-.118-.511-.48-.121-.118-.511-.482-.119-.118-.511-.485-.119-.118-.511-.488-.118-.117-.512-.491-.117-.118-.511-.493-.117-.117-.511-.496-.116-.117-.512-.499-.115-.117-.512-.502-.114-.116-.512-.505-.114-.116-.512-.507-.113-.117-.512-.51-.112-.116-.512-.512-.112-.117-.512-.515-.111-.116-.512-.518-.11-.116-.513-.521-.109-.115-.513-.524-.109-.116-.512-.526-.108-.115-.513-.529-.108-.116-.513-.532-.106-.114-.514-.535-.105-.115-.514-.538-.105-.114-.514-.541-.104-.114-.514-.543-.103-.114-.515-.547-.102-.113-.515-.549-.102-.114-.514-.552-.102-.113-.515-.555-.1-.113-.515-.558-.1-.113-.515-.56-.1-.113-.515-.563-.099-.113-.515-.566-.098-.112-.516-.57-.097-.111-.516-.573-.097-.111-.516-.576-.096-.111-.516-.578-.095-.111-.517-.581-.095-.111-.517-.584-.093-.11-.518-.588-.093-.109-.518-.591-.092-.109-.518-.594-.091-.109-.519-.596-.09-.109-.519-.6-.11-.132-.483-.562-.13-.157-.481-.562-.129-.158-.479-.564-.128-.157-.477-.565-.128-.159-.475-.566-.127-.158-.473-.568-.127-.159-.47-.568-.127-.159-.468-.57-.126-.16-.466-.57-.125-.161-.464-.571-.125-.161-.462-.573-.124-.161-.46-.574-.124-.161-.457-.575-.124-.162-.455-.576-.123-.162-.453-.577-.123-.163-.451-.578-.122-.164-.448-.579-.122-.163-.447-.58-.121-.164-.444-.582-.121-.164-.442-.582-.12-.165-.44-.583-.119-.166-.438-.584-.119-.165-.436-.586-.119-.166-.433-.586-.118-.166-.432-.588-.117-.166-.429-.589-.117-.167-.428-.589-.116-.168-.425-.59-.116-.168-.423-.591-.115-.169-.421-.592-.114-.169-.419-.593-.114-.169-.417-.594-.113-.169-.415-.596-.113-.169-.412-.597-.113-.17-.41-.597-.112-.17-.408-.598-.111-.171-.406-.599-.111-.172-.404-.599-.11-.172-.401-.601-.11-.172-.4-.602-.109-.172-.397-.603-.109-.172-.395-.604-.108-.173-.393-.605-.108-.173-.39-.605-.107-.174-.389-.606-.107-.174-.386-.608-.106-.174-.384-.608-.106-.175-.382-.609-.105-.175-.38-.61-.104-.175-.378-.611-.104-.175-.376-.612-.103-.176-.374-.613-.102-.176-.372-.614-.102-.176-.369-.614-.101-.177-.368-.615-.101-.178-.365-.616-.1-.177-.363-.617-.1-.178-.361-.618-.099-.178-.358-.618-.099-.178-.357-.62-.098-.179-.354-.62-.097-.179-.353-.621-.097-.179-.35-.622-.096-.179-.348-.623-.096-.18-.346-.624-.095-.18-.344-.624-.094-.18-.342-.625-.094-.181-.339-.626-.094-.181-.337-.627-.093-.181-.335-.627-.092-.182-.334-.628-.091-.182-.331-.629-.091-.182-.329-.629-.091-.183-.326-.63-.09-.183-.325-.631-.089-.183-.323-.632-.088-.183-.321-.633-.088-.183-.318-.634-.087-.183-.317-.634-.087-.184-.314-.635-.086-.184-.312-.636-.085-.184-.31-.637-.085-.184-.308-.637-.085-.185-.305-.638-.084-.185-.303-.638-.084-.186-.301-.639-.083-.185-.299-.64-.082-.186-.297-.641-.082-.186-.295-.641-.08-.186-.293-.642-.081-.186-.29-.643-.08-.187-.289-.643-.079-.187-.286-.644-.079-.187-.284-.645-.078-.187-.282-.645-.078-.188-.28-.646-.076-.187-.278-.647-.077-.188-.275-.647-.076-.188-.274-.648-.075-.188-.271-.649-.075-.188-.269-.65-.074-.188-.267-.65-.073-.189-.266-.65-.072-.189-.263-.651-.072-.189-.261-.652-.072-.19-.259-.652-.07-.189-.257-.653-.07-.19-.074-.19-.178-.465-.069-.19-.248-.656-.069-.19-.246-.656-.068-.19-.243-.657-.068-.19-.241-.658-.068-.191-.239-.658-.066-.19-.238-.659-.065-.191-.236-.659-.065-.191-.233-.66-.064-.191-.231-.66-.064-.191-.229-.661-.063-.191-.227-.662-.063-.191-.224-.662-.063-.192-.222-.662-.062-.192-.22-.663-.061-.192-.218-.663-.06-.192-.217-.664-.059-.192-.214-.665-.059-.192-.212-.665-.059-.192-.21-.666-.058-.192-.207-.666-.058-.192-.205-.667-.057-.193-.203-.666-.056-.193-.202-.668-.055-.192-.199-.668-.055-.193-.198-.669-.054-.193-.195-.668-.053-.194-.193-.669-.053-.193-.191-.67-.053-.193-.188-.67-.052-.194-.187-.67-.051-.194-.185-.671-.05-.194-.183-.671-.05-.194-.18-.671-.049-.194-.179-.673-.048-.194-.177-.672-.048-.194-.174-.673-.047-.194-.172-.674-.047-.194-.17-.674-.046-.194-.168-.674-.046-.195-.165-.674-.046-.195-.163-.675-.045-.194-.161-.676-.044-.194-.159-.676-.044-.195-.157-.676-.043-.195-.155-.676-.042-.195-.153-.677-.041-.195-.151-.677-.041-.195-.149-.677-.04-.195-.147-.678-.04-.195-.145-.678-.039-.196-.142-.678-.039-.195-.14-.679-.038-.196-.139-.678-.037-.196-.136-.679-.037-.196-.134-.679-.036-.196-.132-.68-.036-.196-.13-.68-.035-.196-.128-.68-.034-.196-.126-.681-.033-.196-.124-.681-.033-.196-.122-.681-.032-.196-.12-.681-.032-.197-.117-.681-.031-.197-.116-.682-.03-.196-.114-.682-.03-.196-.111-.683-.03-.196-.109-.683-.029-.196-.107-.683-.028-.197-.105-.683-.028-.196-.103-.684-.026-.196-.101-.684-.027-.197-.099-.683-.025-.197-.097-.684-.025-.197-.095-.684-.024-.197-.093-.684-.024-.197-.091-.685-.023-.196-.088-.685-.023-.197-.086-.685-.023-.197-.084-.685-.021-.197-.083-.685-.021-.197-.08-.686-.02-.197-.078-.686-.02-.196-.076-.686-.019-.197-.074-.686-.019-.197-.071-.687-.018-.197-.07-.686-.018-.197-.067-.687-.017-.197-.066-.686-.016-.197-.063-.687-.016-.197-.061-.687-.015-.197-.06-.687-.014-.197-.057-.687-.014-.198-.055-.687-.014-.197-.053-.687-.012-.198-.052-.687-.012-.197-.049-.688-.011-.197-.047-.688-.011-.197-.045-.687-.01-.198-.043-.688-.009-.197-.041-.688-.009-.197-.039-.688-.008-.197-.037-.688-.008-.197-.034-.688-.008-.198-.032-.688-.007-.197-.03-.688-.006-.197-.029-.689-.005-.197-.027-.688-.004-.197-.025-.689-.004-.197-.022-.688-.004-.198-.02-.688-.003-.197-.018-.689-.003-.197-.016-.688-.002-.197-.014-.689-.001-.197-.012-.688-.001-.198-.009-.688-.001-.197-.007-.689v-.197l-.005-.688v-.197l-.003-.689.001-.197-.001-.688.002-.198.001-.688.002-.197.003-.688.003-.197.005-.689.004-.197.007-.688.004-.197.009-.688.005-.197.011-.689.005-.197.013-.688.007-.197.015-.688.006-.197.017-.688.008-.197.019-.688.008-.197.021-.688.009-.196.023-.688.009-.197.025-.688.01-.197.027-.687.011-.197.029-.688.011-.196.031-.688.012-.197.033-.687.012-.197.036-.687.013-.197.037-.687.013-.196.029-.499.012-.188.014-.197.047-.686.014-.197.049-.686.015-.197.051-.686.015-.196.053-.687.016-.196.055-.686.017-.196.056-.686.018-.196.059-.686.018-.196.061-.685.018-.197.063-.685.019-.196.065-.685.02-.196.067-.685.02-.196.069-.685.021-.196.071-.684.022-.196.073-.684.022-.196.075-.684.023-.196.077-.684.023-.196.08-.683.024-.196.081-.683.024-.196.084-.683.025-.196.085-.682.026-.196.087-.683.026-.195.09-.682.026-.196.092-.682.027-.195.094-.682.028-.195.095-.682.029-.195.097-.681.029-.196.1-.681.03-.195.101-.681.031-.194.103-.681.031-.195.106-.68.031-.195.108-.68.032-.195.11-.679.032-.195.112-.679.033-.195.114-.679.034-.194.116-.679.034-.195.118-.678.035-.194.12-.679.036-.194.121-.678.037-.194.124-.677.036-.194.126-.677.038-.194.128-.677.037-.194.131-.677.038-.193.132-.676.039-.194.134-.676.04-.194.136-.675.04-.194.138-.675.041-.193.14-.675.042-.193.142-.674.042-.194.144-.674.043-.193.146-.673.043-.193.148-.673.044-.193.15-.673.045-.193.152-.672.045-.193.154-.672.046-.193.156-.671.046-.193.158-.671.047-.193.16-.67.048-.193.162-.67.048-.192.164-.67.049-.192.166-.67.049-.192.169-.669.049-.192.171-.668.05-.192.172-.668.051-.192.175-.667.051-.192.176-.667.052-.192.179-.666.052-.192.181-.666.053-.191.183-.666.053-.191.185-.666.054-.191.187-.664.054-.191.189-.665.055-.191.191-.663.056-.191.193-.663.056-.191.195-.663.057-.19.197-.662.058-.191.198-.662.059-.19.2-.661.059-.19.203-.661.059-.19.205-.66.06-.19.207-.66.061-.189.208-.659.061-.19.211-.659.062-.189.213-.658.062-.189.215-.658.063-.189.217-.657.063-.189.219-.656.064-.189.221-.656.065-.189.223-.655.065-.189.225-.654.066-.189.226-.654.067-.188.229-.654.067-.188.231-.653.067-.188.233-.652.068-.188.235-.652.069-.188.237-.651.069-.187.239-.651.07-.187.241-.65.071-.187.242-.649.072-.188.244-.648.072-.187.247-.648.072-.187.249-.647.073-.187.251-.647.073-.186.253-.646.074-.187.255-.645.075-.186.257-.645.075-.186.259-.644.076-.186.26-.643.077-.186.263-.642.077-.186.265-.642.077-.186.267-.641.078-.185.269-.641.079-.185.271-.64.079-.185.273-.639.08-.184.274-.639.081-.185.277-.637.081-.185.279-.637.082-.184.28-.636.083-.184.282-.636.083-.184.285-.635.084-.183.286-.634.084-.184.289-.633.085-.184.29-.632.086-.183.292-.632.086-.183.295-.631.086-.183.297-.63.087-.183.298-.63.088-.182.301-.629.088-.182.303-.628.089-.182.304-.627.089-.182.307-.627.09-.181.308-.626.091-.181.302-.608.009-.017.091-.181.319-.621.092-.181.321-.62.092-.18.323-.619.094-.181.324-.618.094-.18.327-.618.094-.18.329-.616.095-.18.331-.616.095-.179.333-.615.096-.179.335-.614.096-.179.337-.613.097-.179.339-.612.098-.179.34-.611.099-.179.342-.61.099-.178.345-.61.099-.178.347-.608.1-.178.348-.608.101-.177.35-.607.101-.177.353-.606.102-.177.354-.605.102-.176.357-.604.103-.177.358-.603.103-.176.361-.602.104-.176.362-.601.104-.176.365-.6.105-.175.366-.6.106-.175.368-.598.106-.175.37-.598.107-.174.372-.597.108-.174.374-.595.108-.174.376-.595.108-.173.378-.594.109-.173.38-.593.11-.173.382-.592.11-.173.384-.59.111-.173.385-.59.112-.172.387-.588.112-.172.39-.588.112-.172.392-.586.113-.172.394-.585.113-.171.396-.585.114-.171.397-.583.115-.171.4-.582.115-.17.401-.582.116-.17.403-.58.117-.17.405-.579.117-.17.407-.578.118-.169.409-.577.118-.169.411-.576.119-.168.413-.576.119-.168.415-.574.12-.167.417-.573.12-.168.419-.572.121-.167.421-.571.121-.166.423-.57.122-.166.425-.569.122-.166.427-.568.123-.165.428-.567.124-.165.431-.566.124-.165.432-.564.125-.165.434-.563.126-.164.436-.562.126-.164.438-.561.127-.164.44-.56.127-.163.442-.559.127-.162.444-.558.128-.162.446-.557.129-.162.448-.555.129-.162.45-.554.129-.162.452-.553.13-.161.454-.551.131-.161.455-.551.132-.16.457-.55.132-.159.46-.549.132-.159.461-.547.133-.159.463-.546.134-.159.465-.545.134-.158.467-.544.135-.158.469-.542.135-.158.471-.541.135-.157.473-.54.137-.157.474-.538.137-.157.477-.537.137-.156.479-.537.137-.155.481-.535.138-.155.483-.534.138-.155.485-.532.139-.155.486-.531.14-.154.488-.53.141-.154.49-.528.141-.154.492-.527.141-.153.494-.526.142-.152.496-.525.142-.152.498-.524.143-.151.5-.523.143-.151.502-.521.143-.15.504-.52.144-.15.506-.519.145-.15.507-.517.145-.149.51-.516.146-.149.511-.514.146-.149.513-.513.147-.148.515-.512.148-.148.517-.51.147-.147.519-.51.149-.146.52-.508.149-.146.523-.507.149-.146.525-.505.149-.145.527-.504.15-.145.529-.502.15-.145.531-.501.151-.144.532-.5.152-.143.534-.498.152-.143.536-.497.153-.143.538-.495.153-.143.54-.494.153-.141.542-.493.154-.141.544-.492.154-.14.546-.49.154-.141.548-.488.155-.14.55-.487.155-.139.552-.486.156-.139.553-.484.157-.138.555-.483.157-.138.557-.481.158-.138.559-.479.158-.137.561-.479.158-.136.563-.477.159-.136.564-.475.159-.136.567-.474.16-.135.568-.472.16-.135.571-.471.16-.134.573-.469.161-.134.574-.468.161-.133.576-.466.161-.132.577-.464.162-.132.267-.214.313-.246.163-.131.582-.455.163-.131.584-.453.163-.13.585-.45.164-.13.585-.449.165-.129.586-.446.165-.128.587-.445.165-.128.589-.442.165-.127.59-.44.165-.127.591-.437.166-.127.592-.435.166-.126.592-.433.167-.125.594-.432.167-.124.594-.429.168-.124.595-.427.168-.123.596-.425.168-.123.598-.423.168-.122.598-.42.169-.122.599-.418.169-.121.601-.416.169-.121.601-.414.17-.12.602-.412.17-.119.603-.41.17-.118.604-.408.171-.118.605-.405.171-.118.606-.403.171-.117.607-.401.171-.117.608-.398.172-.116.608-.397.172-.115.61-.395.172-.114.61-.393.173-.114.611-.39.173-.114.612-.388.174-.113.613-.385.173-.113.614-.383.174-.112.615-.382.174-.111.615-.379.175-.111.616-.377.175-.11.617-.375.175-.11.618-.373.176-.109.618-.37.176-.109.62-.368.176-.108.62-.366.176-.107.621-.364.177-.107.622-.362.177-.106.623-.36.177-.105.623-.358.177-.105.625-.355.177-.104.626-.354.177-.103.627-.352.178-.103.626-.349.179-.102.627-.347.179-.102.628-.345.179-.101.629-.343.179-.1.63-.341.179-.1.631-.338.179-.099.632-.337.179-.098.633-.334.179-.098.633-.332.181-.098.633-.33.181-.097.634-.327.18-.097.636-.325.18-.096.636-.323.181-.095.637-.321.181-.095.637-.319.182-.094.638-.317.181-.093.639-.315.182-.092.639-.313.182-.092.64-.311.183-.091.64-.309.183-.09.641-.307.183-.09.642-.304.183-.089.643-.302.183-.089.643-.3.183-.089.645-.297.183-.088.645-.296.183-.087.646-.293.183-.087.647-.291.183-.086.647-.289.184-.085.648-.287.184-.085.648-.285.184-.084.649-.283.185-.083.649-.281.185-.083.65-.278.185-.082.65-.277.185-.081.651-.275.186-.08.651-.273.186-.08.652-.27.186-.08.653-.268.185-.079.654-.265.186-.079.654-.264.186-.077.654-.262.187-.077.655-.26.186-.076.656-.257.186-.076.657-.256.186-.075.657-.253.187-.075.658-.251.186-.074.658-.249.187-.073.659-.247.187-.073.659-.244.187-.072.66-.243.187-.072.661-.24.187-.071.661-.238.187-.071.662-.236.187-.069.662-.234.188-.07.662-.232.188-.068.663-.23.188-.068.663-.227.188-.068.664-.225.188-.067.665-.223.188-.066.665-.222.188-.065.666-.219.188-.065.666-.217.189-.065.666-.215.188-.063.667-.213.189-.063.667-.211.189-.062.668-.209.189-.062.668-.206.189-.061.668-.205.19-.06.669-.203.189-.06.669-.2.189-.059.67-.198.19-.059.67-.196.189-.058.671-.194.19-.057.671-.192.189-.057.672-.19.19-.056.672-.187.189-.056.673-.186.19-.055.672-.183.19-.054.673-.182.19-.053.674-.18.19-.053.674-.177.19-.052.674-.175.19-.052.675-.173.19-.052.675-.17.191-.051.675-.169.19-.05.676-.167.19-.049.677-.165.19-.049.676-.162.191-.048.677-.16.19-.048.677-.158.191-.048.677-.156.191-.046.678-.154.19-.046.679-.152.19-.045.679-.15.19-.045.679-.147.191-.044.679-.146.191-.044.679-.143.191-.043.68-.141.191-.043.68-.139.191-.042.68-.137.191-.041.68-.135.191-.041.681-.133.191-.04.681-.131.191-.039.682-.129.191-.038.007-.002.675-.121.191-.038.683-.12.191-.037.683-.118.191-.037.683-.116.192-.036.683-.114.191-.036.684-.111.191-.035.684-.11.191-.035.684-.107.191-.034.685-.105.191-.034.684-.103.191-.033.685-.101.191-.032.685-.099.191-.032.685-.097.192-.031.685-.095.191-.03.685-.093.192-.03.685-.091.191-.029.686-.089.191-.028.686-.087.191-.028.686-.084.191-.028.687-.082.191-.027.686-.08.191-.027.687-.078.191-.026.687-.076.19-.025.687-.074.191-.025.687-.072.191-.024.687-.07.191-.023.688-.068.19-.022.688-.066.191-.022.687-.064.191-.022.688-.061.19-.021.688-.06.191-.02.688-.058.19-.02.688-.055.191-.019.688-.054.19-.019.688-.051.191-.018.688-.049.191-.018.688-.047.19-.017.689-.045.19-.016.689-.043.19-.016.688-.041.191-.015.688-.039.191-.015.688-.037.19-.013.689-.035.19-.014.689-.032.19-.013.689-.031.19-.012.688-.029.191-.012.688-.026.19-.011.689-.025.19-.01.689-.023.19-.01.688-.02.19-.009.689-.019.19-.008.689-.017.189-.008.689-.014.19-.008.689-.012.189-.007.689-.01.19-.007.688-.008.19-.006.688-.005.19-.006.689-.004.189-.005.689-.001.189-.005.688.001.19-.004.688.002.19-.003.688.004.189-.002.688.006.19-.002.688.009.189-.002.688.011.189-.001.688.012h.189l.688.015h.189l.688.017.189.001.688.018.189.002.688.02.188.002.688.023.188.003.688.025.189.003.687.027.189.003.687.029.188.004.688.031.188.005.687.033.188.006.687.035.188.006.687.037.188.006.687.039.188.007.687.042.188.007.686.043.188.009.686.045.188.009.686.047.188.009.686.05.187.009.686.052.188.01.685.054.188.01.685.056.188.011.685.058.187.012.685.06.187.012.685.062.187.013.685.064.187.013.685.066.186.014.685.068.186.015.685.07.186.015.684.072.187.016.683.074.187.016.683.076.187.017.683.078.186.017.683.08.186.018.683.082.186.019.683.084.186.019.682.086.186.02.682.088.186.021.681.09.186.02.682.093.185.021.681.094.186.022.681.096.185.023.681.098.185.023.681.1.185.024.68.102.185.024.68.105.185.024.679.107.185.025.679.108.185.026.679.111.184.026.679.112.184.027.679.115.184.027.678.116.184.028.678.119.184.028.677.121.184.029.677.123.184.029.677.125.183.03.677.126.183.031.676.129.184.031.675.13.184.032.675.133.183.032.675.135.183.033.675.136.183.034.674.138.183.034.673.141.183.034.673.143.183.035.673.145.183.036.672.146.182.036.672.149.183.037.671.151.183.037.671.153.182.037.671.155.182.038.67.157.182.039.67.159.182.039.669.161.182.04.669.163.181.04.669.165.181.041.668.167.181.041.668.169.181.042.667.171.181.042.667.173.181.043.666.175.181.044.665.177.181.044.665.179.181.045.665.181.18.045.664.183.18.046.664.184.18.047.663.187.18.047.663.189.18.047.662.191.179.048.662.193.18.048.661.195.179.049.661.197.179.05.66.198.179.051.66.2.179.051.659.203.178.051.659.205.178.052.659.207.178.052.657.209.178.053.657.21.178.054.657.213.178.053.655.215.178.055.655.217.178.054.655.219.177.056.654.221.177.056.654.223.177.056.653.225.176.057.653.227.176.057.652.229.177.058.651.231.176.059.651.233.176.059.65.234.176.06.649.237.176.06.648.239.176.061.648.24.175.062.648.243.175.061.647.245.175.062.646.247.175.063.645.249.175.063.645.251.174.064.644.252.175.065.643.255.174.065.643.256.174.066.642.258.174.066.641.261.174.067.641.262.173.067.64.265.174.068.639.266.173.068.639.269.172.069.638.27.173.069.637.273.173.069.636.275.172.07.636.277.172.07.635.279.172.071.634.281.172.071.634.283.171.072.633.285.171.073.632.286.171.073.632.289.171.074.63.29.171.074.63.293.17.075.629.294.17.075.629.296.17.077.627.298.17.076.627.3.169.077.626.303.169.077.626.304.169.078.624.306.169.079.624.308.168.079.623.31.168.08.622.312.169.08.621.314.168.081.62.316.168.081.619.318.168.082.619.319.167.083.618.321.167.083.617.324.167.083.616.326.166.084.616.328.166.084.614.33.167.085.613.331.166.086.613.333.165.086.612.335.166.087.611.337.165.087.61.34.165.087.609.342.165.088.608.343.164.089.608.345.164.089.606.347.164.09.606.349.164.09.604.351.164.091.603.353.164.091.602.355.163.091.602.357.163.093.601.358.162.093.6.361.162.093.6.363.161.094.599.364.161.095.597.366.162.095.596.369.161.095.595.371.161.095.594.373.161.096.593.375.16.096.593.377.16.097.591.378.16.098.59.381.16.098.589.382.159.099.589.384.158.099.588.387.158.099.587.388.158.101.585.39.158.101.585.392.157.101.584.394.157.102.582.395.157.103.582.397.157.103.58.4.156.103.58.402.156.104.578.403.156.105.577.405.155.105.577.407.155.106.575.409.155.106.574.411.154.107.573.413.155.107.571.415.154.107.571.417.154.108.569.419.154.108.568.421.153.109.568.423.153.109.566.425.152.11.566.427.152.11.564.428.152.111.563.431.151.111.562.433.151.111.561.435.151.112.559.436.151.113.558.438.15.113.558.441.149.113.557.442.149.114.555.445.149.114.554.446.149.115.553.448.148.115.552.45.148.116.55.452.148.117.549.453.147.117.548.456.147.117.547.458.147.118.546.459.146.118.544.462.146.119.544.463.145.119.542.465.145.12.541.467.145.12.54.47.144.12.539.471.144.121.537.473.143.122.537.475.143.121.535.477.142.123.534.478.143.123.532.481.142.123.531.483.142.123.53.485.141.124.529.486.141.125.527.488.14.125.527.49.14.126.525.492.139.126.524.494.139.126.522.496.139.127.521.498.139.127.52.5.138.128.518.501.138.128.517.504.137.129.516.505.137.129.514.507.137.13.513.509.136.13.512.511.135.13.511.513.135.131.509.515.135.131.508.517.134.132.507.518.134.132.505.521.134.132.504.523.133.133.502.524.133.133.388.408.112.119.132.134.498.531.131.134.496.533.131.134.495.535.131.134.493.537.13.135.492.539.13.135.49.541.129.136.489.542.129.136.487.544.129.137.486.546.128.137.485.548.127.138.483.549.128.138.481.552.127.138.48.554.127.138.478.556.126.139.478.557.125.139.476.56.125.139.474.562.125.14.473.563.124.14.471.565.124.141.47.566.123.142.468.568.123.142.467.57.122.142.466.573.121.142.464.574.121.142.463.577.121.143.461.578.12.143.459.58.12.143.458.582.119.144.457.584.108.131.344.443.097.118.343.444.097.118.341.444.096.119.34.444.096.119.338.444.096.12.336.444.096.12.335.445.095.12.333.445.095.12.332.446.094.12.33.446.095.121.328.446.094.121.327.446.094.122.325.446.094.122.323.447.093.122.322.447.093.122.321.447.092.123.319.447.092.123.318.448.092.123.316.448.091.123.314.448.092.124.312.449.091.123.311.449.091.124.31.449.09.124.308.45.09.124.306.45.09.125.305.45.089.124.303.451.089.125.302.45.089.126.3.45.088.126.299.451.088.126.297.451.088.126.296.451.087.126.294.452.087.127.292.451.087.127.291.452.086.127.29.452.086.128.288.452.085.127.287.453.085.128.285.453.085.128.283.453.085.128.282.453.084.128.28.454.084.128.279.454.083.129.278.454.083.129.276.454.083.129.274.455.082.129.273.455.082.129.272.455.081.129.27.456.081.129.269.456.081.129.267.456.08.13.266.456.08.13.264.456.08.13.262.457.079.13.261.457.079.13.26.457.079.131.258.457.078.131.256.457.079.131.255.457.077.131.254.458.077.131.252.458.077.131.251.458.076.132.249.458.076.132.248.458.076.132.246.458.075.132.245.459.075.132.243.459.075.132.242.459.074.132.241.459.073.133.239.459.074.133.237.459.073.133.237.46.072.133.235.46.072.133.233.46.072.133.232.46.072.133.23.46.071.134.229.46.071.134.227.46.071.134.226.461.07.134.224.46.07.134.223.461.069.134.222.461.069.134.22.461.069.135.219.461.068.134.217.462.068.134.216.462.067.134.215.462.067.135.213.461.067.135.212.462.066.135.21.462.066.135.209.462.065.135.208.462.065.135.206.463.065.135.205.462.064.135.203.463.064.135.202.463.063.135.201.463.063.136.2.463.062.135.198.463.062.135.197.464.061.135.196.464.061.135.194.464.061.135.193.464.06.135.191.464.06.135.19.464.06.136.188.464.06.135.187.465.059.135.186.464.058.136.185.464.057.136.184.464.057.136.182.464.057.136.181.465.057.135.179.465.056.136.178.464.056.136.177.465.055.136.175.465.055.135.174.465.055.136.173.465.054.136.171.465.054.136.17.465.053.136.169.465.053.136.168.465.052.136.166.465.053.136.164.465.052.136.163.466.052.135.162.466.051.136.161.465.051.136.159.466.05.135.159.466.049.136.157.465.05.136.155.466.049.135.155.466.048.136.153.466.049.135.151.466.048.136.151.466.047.135.149.466.048.136.147.466.047.135.147.466.046.136.145.466.046.135.144.466.046.135.143.467.045.135.141.466.045.135.14.467.045.135.139.466.044.135.137.466.044.135.137.467.043.134.135.467.043.135.134.466.042.135.133.466.042.135.131.466.042.135.13.466.041.135.129.466.041.135.128.466.04.135.127.466.04.134.125.467.04.134.124.467.039.134.123.466.039.134.122.467.038.134.121.466.038.134.119.467.038.133.118.467.037.133.117.467.037.133.116.467.036.133.115.467.036.133.113.467.036.133.112.467.035.132.111.467.035.133.11.467.034.132.109.467.034.133.107.466.034.133.106.466.034.133.104.466.034.132.103.467.033.132.103.466.032.133.101.466.032.132.101.466.031.132.099.466.032.132.097.466.031.132.097.466.03.132.096.466.03.131.094.466.03.132.093.466.03.131.092.466.029.131.091.466.029.131.089.466.029.13.088.466.028.131.087.466.028.13.086.466.028.13.085.466.027.13.084.466.026.13.083.465.026.13.082.466.026.129.08.466.026.129.079.466.026.129.078.465.025.13.077.465.025.129.075.465.025.129.075.465.024.129.073.465.024.129.072.465.024.128.071.465.023.128.07.465.023.128.069.465.022.128.068.465.022.127.067.465.022.127.066.465.021.127.065.465.021.127.064.464.02.127.063.465.02.126.062.465.02.126.06.464.02.127.059.464.019.126.058.464.019.126.058.464.018.126.056.464.019.125.055.464.018.126.054.463.017.125.053.464.018.125.051.463.017.125.051.464.017.124.049.464.017.124.048.463.017.124.047.463.016.125.046.462.016.124.045.463.016.124.044.462.015.124.043.462.015.124.042.462.014.123.042.462.014.123.04.463.014.122.039.462.013.123.038.462.013.122.037.462.013.122.036.461.013.122.035.462.012.122.034.461.012.121.033.462.011.121.032.461.012.121.031.461.011.121.029.461.011.12.029.461.011.12.027.461.011.12.027.46.01.12.025.461.01.119.025.46.009.12.024.46.009.119.023.46.009.119.022.46.008.119.021.459.008.119.02.459.008.119.019.459.008.118.018.459.007.118.017.459.007.118.016.458.007.118.015.458.007.118.013.458.007.117.013.458.006.117.012.458.006.117.011.457.006.117.01.457.005.117.009.457.005.117.008.456.005.117.007.456.005.116.006.457.004.115.006.457.004.115.004.456.004.116.003.456.004.115.002.455.004.115.001.456.003.114.001.456.003.114-.001.455.003.114-.002.455.003.114-.003.455.003.114-.004.454.002.114-.004.454.002.113-.005.454.001.113-.006.454.001.113-.007.454.001.112-.008.454.001.112-.009.453.001.112-.01.453v.112l-.01.453v.112l-.012.452v.112l-.012.452-.001.111-.013.452-.001.111-.014.452-.001.111-.015.452-.001.11-.016.452-.001.11-.017.451-.002.11-.018.451-.001.11-.019.451-.002.109-.02.451-.002.109-.021.45-.002.11-.021.45-.003.109-.022.449-.003.109-.023.449-.003.109-.024.449-.003.109-.025.448-.004.109-.025.448-.004.108-.027.448-.003.108-.028.448-.004.108-.028.448-.005.107-.029.447-.004.107-.03.448-.005.107-.031.447-.005.106-.032.447-.005.106-.032.447-.005.106-.034.446-.005.106-.035.446-.005.106-.036.445-.005.106-.037.445-.005.105-.037.445-.007.106-.037.444-.007.105-.038.445-.007.104-.039.444-.007.105-.04.444-.007.104-.041.444-.007.104-.042.443-.007.104-.043.443-.008.103-.043.443-.008.103-.044.443-.008.103-.045.442-.008.103-.046.442-.008.102-.047.442-.008.102-.048.441-.008.103-.049.441-.009.102-.049.44-.009.102-.05.44-.009.102-.051.44-.009.101-.051.44-.01.101-.052.439-.01.101-.024.2-.03.239-.009.101-.056.438-.009.101-.056.438-.01.1-.057.438-.01.1-.058.438-.01.1-.059.437-.01.1-.059.437-.011.099-.06.436-.011.1-.06.436-.011.099-.062.436-.011.099-.062.435-.011.099-.063.435-.012.098-.064.435-.011.098-.065.435-.011.098-.066.434-.012.098-.066.433-.012.098-.066.433-.013.098-.067.433-.013.097-.068.433-.012.097-.069.432-.013.097-.07.432-.012.096-.071.432-.013.096-.071.431-.013.096-.072.431-.013.096-.073.431-.013.095-.074.43-.013.096-.074.43-.014.095-.075.429-.014.095-.075.429-.014.095-.077.429-.014.095-.077.428-.014.094-.078.428-.014.095-.078.427-.015.094-.079.427-.015.094-.079.427-.015.093-.081.427-.015.093-.081.426-.015.093-.082.426-.015.093-.083.425-.015.093-.083.425-.016.093-.084.424-.023.138-.17.848-.032.184-.172.846-.033.183-.175.845-.033.182-.178.843-.033.182-.181.841-.034.181-.183.839-.034.18-.186.838-.035.18-.189.836-.035.178-.191.835-.036.178-.194.832-.036.177-.196.831-.037.177-.198.829-.038.176-.201.827-.037.175-.204.825-.038.175-.206.823-.039.174-.209.822-.039.173-.211.82-.039.172-.214.818-.039.172-.216.816-.04.171-.219.814-.04.171-.221.812-.041.17-.223.81-.041.169-.226.809-.041.168-.228.807-.042.167-.23.805-.043.167-.232.802-.043.167-.234.801-.044.165-.236.799-.044.165-.239.797-.044.164-.241.795-.044.164-.243.792-.045.164-.246.79-.045.163-.247.788-.046.162-.249.787-.047.161-.251.784-.046.161-.254.782-.047.161-.255.78-.048.16-.257.777-.048.16-.259.775-.048.159-.261.773-.049.159-.263.771-.049.157-.265.77-.049.157-.267.766-.05.157-.269.765-.05.156-.271.762-.05.155-.273.761-.05.155-.275.757-.051.155-.276.755-.052.154-.278.754-.051.153-.28.751-.052.153-.282.749-.052.152-.284.746-.052.152-.285.744-.054.152-.286.741-.054.152-.288.739-.054.15-.29.737-.054.15-.292.735-.055.149-.293.732-.055.15-.294.729-.056.149-.296.727-.056.149-.298.724-.056.148-.299.722-.057.148-.3.719-.057.148-.303.717-.057.147-.303.714-.058.147-.305.711-.058.147-.307.709-.058.146-.308.707-.059.145-.309.704-.06.146-.31.701-.004.009-5.224 9.229-6.734 7.859-7.96 6.363-8.907 4.75-9.573 3.018-9.959 1.168-10.065-.799-9.881-2.879-.018-.008-9.072-4.86-7.747-6.476-6.294-7.806-4.723-8.856-3.036-9.627-1.23-10.117.693-10.326 2.73-10.247.272-.728-.059.146.268-.721-.059.146.266-.723-.059.146.265-.726-.058.147.263-.729-.058.147.261-.731-.057.147.26-.733-.057.148.258-.736-.057.148.257-.738-.057.148.255-.74-.056.148.253-.742-.055.149.251-.746-.055.15.25-.748-.055.15.248-.75-.054.15.246-.752-.054.151.244-.755-.053.151.242-.757-.053.152.241-.759-.053.152.239-.762-.053.153.237-.764-.052.153.235-.766-.052.153.234-.768-.052.154.232-.77-.051.154.229-.773-.051.155.228-.774-.051.155.226-.777-.05.156.224-.779-.05.156.222-.781-.05.157.22-.783-.049.157.217-.785-.048.158.215-.788-.048.159.214-.79-.048.159.211-.791-.047.16.209-.794-.047.16.207-.796-.047.161.205-.797-.046.161.202-.8-.046.162.201-.801-.046.162.199-.803-.046.163.196-.805-.044.163.194-.807-.045.164.192-.809-.044.165.189-.811-.044.166.187-.813-.043.166.185-.815-.043.167.182-.817-.042.168.18-.819-.042.169.177-.821-.041.169.175-.822-.041.169.172-.823-.04.17.17-.826-.04.171.167-.827-.039.171.165-.829-.04.172.163-.831-.039.174.16-.833-.038.174.158-.835-.038.175.155-.836-.038.175.153-.837-.037.175.15-.839-.037.177.147-.841-.036.177.145-.842-.036.178.142-.844-.035.179.139-.846-.035.18.137-.847-.034.18.134-.849-.034.181.131-.85-.033.182.128-.851-.032.182.125-.853-.032.183.123-.854-.032.184.12-.856-.023.139.059-.429-.016.093.059-.429-.016.093.058-.43-.015.093.056-.429-.015.093.056-.43-.014.093.055-.43-.015.094.055-.431-.015.094.054-.431-.014.094.053-.431-.015.094.053-.432-.014.095.051-.432-.014.094.051-.432-.014.095.051-.433-.014.095.049-.433-.013.095.049-.433-.014.096.048-.434-.013.096.047-.434-.013.095.046-.434-.013.096.046-.434-.013.096.045-.435-.013.096.045-.435-.013.097.044-.436-.013.097.043-.436-.012.097.042-.436-.013.097.042-.436-.012.097.04-.437-.012.098.04-.437-.012.098.039-.437-.011.098.038-.438-.012.098.038-.438-.011.099.036-.439-.011.099.036-.438-.011.099.035-.439-.011.099.035-.439-.011.099.033-.439-.01.099.033-.44-.011.1.032-.44-.01.1.031-.44-.01.1.031-.441-.01.101.029-.441-.009.101.015-.24.014-.201-.009.101.029-.442-.01.101.029-.441-.009.101.027-.442-.009.102.027-.443-.009.102.026-.442-.009.102.025-.443-.008.102.024-.443-.008.103.023-.444-.008.103.023-.443-.008.102.022-.443-.008.103.021-.444-.007.103.02-.444-.008.103.02-.444-.008.103.019-.444-.007.104.018-.446-.007.105.017-.446-.007.105.016-.446-.007.105.015-.446-.006.105.014-.446-.006.105.014-.446-.006.105.012-.447-.005.106.011-.447-.005.106.011-.447-.005.106.01-.448-.006.107.01-.448-.005.107.008-.448-.005.106.008-.448-.005.107.007-.448-.005.107.006-.448-.004.107.005-.448-.004.107.004-.449-.004.108.003-.449-.004.108.002-.449-.003.108.001-.45-.003.109.001-.45-.003.109-.001-.45-.002.109-.002-.451-.002.11-.003-.451-.002.109-.003-.45-.002.109-.004-.45-.002.11-.005-.451-.002.11-.006-.452-.001.111-.007-.452-.001.111-.008-.452-.001.111-.008-.452-.001.111-.009-.452-.001.111-.01-.452-.001.111-.011-.452v.112l-.012-.453v.112l-.014-.453.001.112-.014-.453v.113l-.015-.453.001.112-.016-.453.001.112-.017-.453.002.113-.018-.454.001.114-.019-.454.002.113-.019-.454.002.114-.021-.454.002.114-.022-.455.003.114-.023-.454.003.114-.023-.454.003.114-.025-.455.003.115-.025-.455.003.115-.026-.455.004.115-.028-.455.004.115-.028-.455.004.115-.029-.455.004.116-.03-.456.005.116-.031-.456.005.117-.032-.456.005.116-.033-.456.005.117-.034-.456.006.116-.035-.456.006.117-.037-.456.007.117-.037-.457.006.118-.038-.457.007.118-.039-.457.007.118-.04-.457.007.118-.041-.457.008.118-.042-.457.008.119-.043-.458.008.119-.044-.457.008.119-.045-.458.009.119-.046-.457.009.119-.047-.458.009.12-.048-.458.009.12-.049-.458.01.12-.05-.458.01.12-.051-.458.01.12-.052-.458.011.12-.053-.458.01.121-.054-.459.011.121-.055-.458.012.121-.056-.458.011.121-.057-.459.012.122-.058-.459.012.122-.059-.459.012.122-.06-.459.013.122-.061-.459.013.122-.063-.459.014.123-.064-.459.014.122-.064-.459.014.123-.066-.459.015.123-.067-.459.015.123-.068-.46.015.124-.069-.46.016.124-.07-.46.015.124-.07-.459.016.124-.072-.46.016.124-.073-.459.016.124-.074-.46.017.125-.075-.46.017.125-.076-.46.018.125-.078-.46.018.125-.078-.46.018.126-.08-.461.019.126-.081-.46.019.126-.082-.461.019.126-.082-.46.019.126-.084-.46.02.126-.085-.46.02.126-.086-.46.021.127-.087-.461.02.127-.088-.46.021.127-.089-.461.021.128-.09-.461.021.127-.091-.46.022.127-.093-.46.023.128-.094-.461.023.128-.095-.461.023.128-.096-.46.023.128-.097-.461.024.129-.098-.461.024.129-.1-.461.025.129-.101-.461.025.129-.102-.461.025.129-.102-.461.025.13-.104-.461.026.129-.105-.46.026.129-.106-.461.027.13-.108-.461.027.13-.108-.461.027.13-.11-.46.028.13-.111-.461.028.13-.112-.46.028.13-.113-.461.029.131-.114-.461.029.131-.116-.461.03.131-.117-.461.03.131-.118-.46.03.131-.119-.461.031.131-.12-.46.03.131-.121-.46.031.131-.122-.46.031.131-.123-.46.032.132-.125-.461.032.132-.126-.46.033.132-.127-.461.033.132-.128-.46.033.132-.129-.46.033.132-.13-.46.034.132-.132-.46.034.133-.133-.46.035.132-.134-.46.035.133-.135-.46.035.133-.136-.46.035.133-.137-.46.036.133-.139-.46.037.133-.141-.459.037.133-.141-.46.037.134-.142-.46.038.133-.144-.459.038.133-.145-.459.038.133-.146-.459.039.134-.147-.46.039.134-.149-.459.04.134-.15-.46.04.135-.151-.46.04.135-.152-.46.041.135-.154-.46.041.135-.154-.459.041.134-.156-.459.042.135-.157-.459.042.135-.158-.459.042.134-.159-.458.043.134-.161-.458.043.135-.162-.459.044.135-.164-.458.045.135-.165-.459.045.135-.166-.458.045.135-.168-.458.046.135-.169-.458.046.135-.17-.458.047.135-.172-.457.047.135-.172-.458.047.136-.174-.458.048.135-.175-.457.048.135-.177-.457.049.135-.178-.457.049.136-.179-.458.049.136-.18-.457.05.135-.182-.456.05.135-.182-.457.05.136-.184-.457.051.136-.186-.456.051.135-.186-.456.051.135-.187-.456.051.136-.189-.456.053.136-.191-.456.053.135-.192-.456.053.136-.193-.455.054.135-.195-.455.054.135-.195-.455.054.136-.197-.455.055.135-.199-.455.055.136-.199-.455.055.136-.201-.455.056.136-.202-.455.056.136-.203-.455.056.136-.204-.454.057.135-.207-.454.058.136-.208-.454.058.136-.209-.454.059.135-.211-.453.059.135-.211-.453.059.135-.213-.453.059.136-.214-.453.06.135-.216-.453.061.136-.217-.453.06.135-.218-.452.061.135-.22-.452.062.135-.221-.452.062.135-.223-.452.063.135-.224-.452.063.136-.225-.452.063.135-.227-.451.064.135-.228-.452.064.136-.229-.452.064.135-.231-.451.065.135-.232-.45.065.135-.233-.451.065.135-.234-.45.066.134-.237-.45.067.135-.238-.45.067.134-.239-.449.067.134-.24-.449.067.134-.241-.449.068.134-.244-.449.069.134-.245-.448.069.134-.246-.449.069.134-.247-.448.069.134-.248-.448.07.133-.251-.448.071.134-.252-.447.071.133-.253-.447.071.133-.254-.447.071.133-.256-.447.072.134-.257-.447.072.133-.259-.446.073.133-.26-.447.073.133-.261-.446.073.133-.263-.446.074.133-.265-.446.075.133-.266-.445.074.132-.267-.445.075.132-.269-.444.076.132-.27-.445.075.132-.271-.444.076.132-.273-.444.076.131-.274-.443.077.131-.276-.443.077.131-.277-.443.077.131-.279-.443.078.131-.28-.442.078.131-.281-.443.078.131-.283-.442.079.13-.284-.442.079.131-.286-.442.08.131-.288-.442.08.13-.289-.441.081.13-.291-.44.081.129-.292-.44.081.129-.293-.44.081.13-.295-.44.082.129-.296-.44.082.129-.298-.439.083.129-.3-.439.084.129-.301-.439.083.128-.302-.438.083.128-.304-.438.085.128-.306-.438.085.128-.307-.438.084.128-.308-.437.085.127-.31-.437.086.128-.312-.437.086.127-.313-.436.086.127-.314-.436.086.126-.316-.435.087.126-.317-.435.087.126-.319-.435.087.126-.32-.435.088.126-.322-.435.088.126-.324-.434.089.125-.326-.434.089.125-.326-.433.089.125-.328-.433.089.124-.33-.432.09.124-.331-.433.09.125-.333-.433.091.124-.335-.431.091.123-.336-.431.091.123-.337-.431.091.123-.339-.43.092.122-.341-.43.093.123-.343-.43.093.122-.344-.43.093.122-.346-.429.093.122-.347-.429.094.122-.349-.429.094.121-.35-.428.094.121-.352-.428.095.121-.354-.428.095.121-.355-.427.095.12-.356-.427.095.12-.358-.426.095.12-.359-.427.095.12-.361-.426.096.119-.362-.425.096.119-.364-.425.096.119-.366-.425.097.118-.367-.424.108.131-.487-.559.119.144-.488-.557.119.144-.49-.555.121.143-.491-.553.12.143-.492-.551.121.143-.494-.549.121.142-.495-.547.122.142-.496-.545.122.141-.498-.543.123.141-.499-.541.123.141-.501-.539.124.14-.502-.537.125.14-.504-.536.125.14-.505-.533.126.139-.506-.531.125.139-.507-.53.126.139-.509-.528.127.138-.51-.525.127.138-.511-.524.127.138-.513-.522.129.137-.515-.519.129.136-.515-.517.129.136-.517-.516.129.136-.518-.514.13.136-.519-.512.13.135-.52-.51.131.135-.522-.508.131.135-.523-.506.131.134-.524-.504.132.133-.118-.113-.406-.391.133.133-.525-.502.134.133-.526-.501.133.132-.527-.498.134.131-.528-.496.134.131-.529-.495.135.131-.531-.492.135.13-.532-.491.136.131-.534-.489.136.129-.534-.487.136.13-.535-.485.137.129-.537-.483.137.128-.538-.481.137.128-.539-.479.138.128-.541-.477.139.127-.542-.475.139.126-.543-.473.139.127-.544-.472.14.126-.546-.469.14.125-.546-.467.14.125-.548-.465.141.124-.549-.463.142.124-.551-.461.142.123-.551-.459.142.123-.553-.457.143.122-.554-.455.143.122-.555-.453.143.121-.556-.451.144.121-.557-.449.144.121-.558-.448.144.12-.56-.445.145.12-.56-.444.145.12-.562-.442.145.119-.562-.44.146.119-.564-.438.146.118-.565-.436.146.118-.566-.434.147.118-.567-.432.147.116-.568-.429.148.116-.57-.428.148.116-.57-.426.148.115-.572-.424.149.115-.572-.422.148.114-.573-.42.149.114-.575-.418.15.114-.576-.416.15.113-.576-.415.15.113-.578-.412.151.112-.579-.41.151.111-.58-.408.151.111-.581-.406.152.11-.582-.404.152.11-.583-.402.152.11-.584-.401.153.109-.585-.398.153.109-.586-.397.153.109-.587-.395.153.108-.588-.393.154.108-.589-.391.154.107-.59-.389.155.107-.591-.387.155.106-.592-.385.155.106-.593-.383.155.105-.594-.381.156.105-.595-.379.156.104-.596-.377.157.103-.597-.374.157.103-.598-.373.157.102-.599-.37.158.101-.6-.368.157.101-.6-.367.158.101-.602-.365.158.101-.602-.363.158.1-.603-.361.159.099-.605-.359.159.099-.605-.357.16.099-.607-.355.16.098-.607-.353.16.097-.608-.351.16.097-.609-.349.161.096-.61-.346.161.095-.611-.344.161.095-.611-.343.161.095-.612-.341.161.094-.613-.339.162.094-.614-.337.162.093-.615-.335.162.093-.615-.333.162.092-.616-.331.163.092-.618-.329.163.091-.618-.327.163.091-.619-.325.164.09-.62-.323.164.089-.621-.321.164.089-.621-.319.164.089-.622-.317.164.088-.623-.315.165.088-.624-.313.165.087-.624-.311.165.086-.626-.309.166.086-.626-.307.166.085-.628-.305.167.085-.628-.303.166.085-.629-.301.167.084-.63-.299.167.083-.63-.297.167.083-.631-.295.167.082-.631-.293.167.082-.632-.291.168.081-.634-.289.168.081-.634-.287.169.08-.635-.285.168.08-.635-.283.169.079-.636-.281.168.078-.636-.279.169.078-.638-.277.169.078-.638-.275.17.077-.639-.273.17.077-.64-.271.17.076-.64-.269.17.075-.641-.267.17.075-.642-.265.171.074-.642-.263.17.074-.643-.261.171.074-.643-.259.171.073-.644-.257.171.072-.645-.255.172.072-.646-.253.172.071-.647-.251.172.071-.647-.249.173.07-.648-.247.172.07-.648-.245.173.069-.649-.243.173.069-.65-.241.173.068-.65-.239.173.067-.65-.237.173.068-.651-.235.173.066-.652-.233.174.066-.652-.231.174.066-.653-.229.174.065-.654-.227.174.064-.654-.225.175.064-.655-.223.174.064-.655-.221.175.063-.656-.219.175.062-.657-.217.176.062-.658-.215.176.061-.658-.213.176.061-.658-.211.175.06-.658-.208.175.059-.659-.207.176.06-.66-.205.177.058-.661-.202.177.058-.661-.201.177.057-.662-.198.177.057-.662-.197.177.056-.662-.194.177.055-.663-.192.177.055-.663-.191.177.055-.664-.188.178.054-.665-.187.178.054-.665-.185.178.054-.665-.183.178.053-.666-.181.178.052-.666-.178.179.051-.667-.176.178.051-.667-.175.179.051-.668-.173.179.05-.668-.17.179.049-.669-.168.18.049-.669-.167.179.049-.67-.165.18.048-.67-.162.18.047-.671-.16.18.046-.671-.158.18.046-.671-.156.18.046-.671-.155.18.046-.672-.153.18.045-.672-.15.181.044-.673-.149.181.044-.674-.146.181.043-.673-.144.181.042-.674-.142.181.042-.674-.14.181.041-.675-.138.181.041-.675-.136.182.04-.675-.134.181.04-.676-.132.182.039-.676-.13.182.039-.676-.128.182.038-.677-.126.182.038-.677-.124.182.037-.677-.122.182.036-.677-.12.182.036-.678-.117.183.035-.679-.116.183.035-.679-.114.183.035-.679-.112.183.034-.679-.11.183.033-.679-.107.183.032-.68-.105.184.032-.681-.104.184.032-.68-.102.183.032-.68-.1.183.031-.681-.098.184.03-.681-.095.184.029-.682-.093.185.029-.682-.092.184.029-.682-.09.184.028-.682-.087.185.027-.683-.085.185.026-.683-.083.185.026-.683-.081.185.026-.684-.079.185.025-.683-.077.185.024-.684-.075.185.024-.683-.073.185.023-.684-.071.185.023-.684-.069.185.023-.684-.067.186.022-.685-.065.186.021-.685-.063.186.021-.685-.061.186.02-.686-.059.186.02-.685-.057.186.019-.685-.055.186.019-.686-.053.186.018-.685-.05.186.017-.686-.049.187.017-.687-.046.187.016-.686-.044.186.016-.686-.043.187.015-.687-.04.187.015-.686-.039.186.014-.686-.036.187.013-.687-.034.187.013-.687-.032.187.012-.687-.03.187.012-.687-.028.188.011-.688-.026.188.011-.687-.024.187.01-.687-.022.187.01-.687-.02.187.009-.687-.018.188.009-.688-.016.188.008-.688-.014.188.007-.688-.011.188.007-.687-.01.188.006-.688-.008.188.006-.688-.005.188.005-.688-.004.189.005-.688-.002.188.005h-.688l.189.004-.688.002.188.003-.688.005.189.002-.688.007.188.002-.688.008.189.002-.688.011h.189l-.688.013h.189l-.688.015h.189l-.689.017.189-.001-.688.019.19-.002-.688.021.189-.002-.688.023.189-.002-.688.025.189-.003-.688.027.19-.004-.688.029.189-.004-.688.031.19-.004-.688.033.19-.006-.688.036.189-.006-.687.037.189-.006-.687.039.189-.007-.687.042.19-.008-.688.044.19-.009-.687.046.189-.009-.687.048.19-.01-.687.05.19-.01-.687.052.19-.01-.687.053.19-.011-.687.056.19-.011-.687.058.19-.013-.686.06.19-.012-.687.062.191-.014-.687.065.19-.014-.686.066.19-.015-.686.069.191-.016-.686.071.19-.016-.686.073.191-.017-.686.075.19-.017-.685.077.19-.018-.685.079.19-.018-.685.08.191-.018-.685.083.19-.02-.685.085.191-.019-.685.086.191-.02-.685.089.191-.021-.684.091.191-.021-.685.093.191-.022-.684.095.191-.023-.684.097.191-.023-.683.099.19-.023-.683.101.191-.024-.683.103.191-.025-.683.106.191-.026-.683.107.191-.026-.682.11.191-.027-.683.112.191-.027-.682.113.191-.028-.681.116.191-.028-.682.118.191-.03-.681.121.191-.03-.681.122.191-.03-.681.124.192-.031-.681.126.191-.032-.68.129.191-.032-.68.13.191-.033-.679.133.191-.033-.679.134.191-.034-.679.137.191-.035-.679.139.191-.035-.678.141.191-.036-.678.143.191-.036-.678.144.192-.036-.678.147.191-.038-.677.149.191-.038-.669.15-.008.001.192-.039-.678.149.191-.039-.677.15.191-.039-.676.152.19-.04-.676.155.191-.041-.676.157.191-.042-.676.159.191-.042-.675.161.191-.043-.675.163.191-.044-.675.166.191-.044-.674.167.19-.045-.673.17.19-.046-.673.172.19-.046-.673.174.191-.047-.673.176.191-.047-.672.177.19-.047-.672.18.191-.049-.672.182.191-.049-.671.184.19-.049-.671.186.191-.05-.671.188.191-.051-.67.19.19-.051-.669.192.19-.052-.669.195.19-.053-.669.197.19-.053-.668.198.19-.053-.667.2.19-.054-.668.203.19-.055-.667.205.19-.056-.666.207.19-.056-.666.209.189-.057-.665.211.19-.057-.665.213.189-.058-.664.216.189-.059-.664.217.19-.059-.664.22.19-.06-.663.222.189-.061-.663.224.189-.061-.661.226.189-.062-.662.228.189-.063-.661.23.189-.062-.66.232.188-.064-.659.234.188-.064-.659.237.188-.065-.658.238.188-.065-.658.24.188-.066-.657.243.188-.067-.657.245.188-.067-.657.247.188-.068-.656.249.188-.069-.655.251.187-.069-.654.253.187-.069-.654.255.188-.071-.654.258.187-.071-.653.259.188-.071-.653.261.187-.072-.652.264.187-.073-.651.266.187-.074-.651.268.187-.074-.65.27.187-.075-.65.273.187-.076-.649.275.186-.076-.648.276.186-.077-.647.279.186-.077-.647.28.186-.078-.646.283.185-.078-.645.284.185-.079-.645.287.186-.079-.644.289.185-.081-.644.291.185-.08-.643.293.185-.082-.642.296.185-.083-.642.298.185-.083-.641.3.185-.084-.641.302.185-.084-.64.304.184-.085-.638.306.184-.085-.639.308.184-.086-.637.31.183-.086-.636.312.183-.087-.636.314.183-.087-.635.316.183-.088-.634.318.183-.089-.634.321.183-.09-.634.323.183-.09-.632.325.182-.091-.632.327.183-.091-.631.329.182-.092-.63.331.181-.092-.629.333.182-.093-.629.335.181-.093-.627.337.181-.094-.627.339.181-.095-.627.342.181-.095-.625.344.18-.097-.625.346.181-.096-.624.348.18-.098-.623.351.18-.099-.623.353.18-.099-.621.355.179-.1-.621.357.179-.1-.619.359.179-.101-.619.361.178-.101-.618.363.179-.101-.618.365.178-.103-.616.368.178-.103-.616.369.178-.103-.615.371.178-.104-.614.374.177-.105-.613.376.177-.106-.612.378.176-.106-.611.38.176-.106-.61.382.176-.107-.61.384.176-.108-.608.387.175-.109-.608.389.176-.109-.607.391.175-.11-.606.393.175-.11-.605.395.174-.111-.604.397.174-.111-.603.399.174-.112-.602.401.173-.112-.601.403.173-.113-.6.406.173-.114-.6.408.173-.114-.599.409.173-.114-.598.412.172-.116-.596.414.171-.116-.595.416.171-.116-.595.418.172-.117-.594.421.171-.118-.593.422.171-.118-.592.425.17-.119-.591.427.17-.12-.59.429.17-.12-.589.431.169-.12-.588.433.169-.121-.587.435.169-.121-.586.437.168-.122-.585.44.168-.123-.584.441.168-.123-.583.444.168-.124-.582.446.167-.125-.581.449.166-.125-.579.45.166-.126-.579.453.166-.127-.578.455.166-.127-.577.457.165-.127-.575.459.164-.128-.574.461.164-.129-.573.464.164-.13-.572.466.163-.13-.571.468.163-.13-.57.469.163-.13-.569.471.162-.131-.305.255-.265.217.163-.132-.571.471.162-.132-.57.474.161-.133-.568.475.161-.133-.567.477.161-.134-.565.478.161-.134-.563.479.16-.135-.561.481.159-.135-.558.483.158-.136-.556.484.158-.137-.555.486.158-.137-.553.487.158-.138-.551.489.157-.138-.55.489.157-.138-.547.491.156-.139-.545.493.155-.139-.543.493.155-.139-.541.495.155-.14-.54.496.154-.14-.537.498.154-.142-.536.5.154-.142-.534.501.153-.142-.532.502.152-.143-.53.504.152-.143-.528.505.152-.144-.526.506.151-.144-.524.508.151-.145-.523.509.15-.145-.52.511.15-.146-.519.512.15-.146-.517.513.149-.146-.515.514.149-.147-.513.516.148-.148-.511.517.147-.147-.508.518.146-.148-.506.519.146-.148-.505.521.146-.149-.503.522.145-.15-.501.524.145-.15-.499.525.144-.151-.497.526.144-.15-.495.527.143-.151-.493.528.142-.151-.491.529.142-.151-.489.531.142-.153-.488.532.142-.152-.486.533.141-.153-.484.535.14-.154-.481.536.139-.154-.479.537.139-.154-.478.538.139-.154-.476.539.138-.155-.474.541.138-.156-.472.542.137-.156-.47.544.137-.157-.468.545.136-.157-.466.546.135-.157-.464.546.135-.157-.462.548.134-.158-.46.549.134-.158-.458.55.133-.158-.456.551.133-.159-.455.553.132-.159-.452.554.132-.16-.451.555.132-.16-.449.556.131-.161-.447.558.13-.161-.445.558.13-.161-.443.56.13-.162-.441.561.128-.162-.439.562.128-.163-.436.563.127-.162-.435.564.127-.163-.433.565.126-.163-.431.566.126-.164-.429.568.125-.164-.427.568.125-.164-.425.569.124-.164-.423.57.123-.165-.421.572.123-.165-.419.573.123-.166-.418.574.122-.166-.415.575.121-.167-.413.576.121-.167-.412.578.12-.167-.409.578.12-.168-.408.58.119-.168-.405.58.118-.168-.404.582.119-.169-.402.583.118-.169-.4.583.117-.169-.398.585.116-.17-.396.586.116-.17-.394.587.116-.17-.392.587.115-.17-.39.588.114-.17-.388.589.113-.171-.386.591.113-.171-.384.591.113-.171-.382.592.112-.172-.381.594.112-.172-.379.594.111-.172-.376.595.11-.173-.374.597.11-.173-.373.597.109-.173-.37.598.109-.173-.369.599.108-.174-.366.6.107-.174-.364.601.107-.174-.363.602.106-.175-.36.603.105-.175-.358.604.105-.175-.357.605.105-.175-.355.605.104-.175-.352.606.103-.176-.351.608.103-.176-.349.608.103-.177-.347.61.102-.177-.345.61.101-.177-.343.611.101-.177-.341.612.1-.178-.339.613.099-.177-.337.613.099-.178-.335.615.099-.178-.333.615.097-.179-.331.617.098-.179-.33.617.097-.179-.327.618.096-.179-.325.619.095-.18-.323.62.095-.18-.321.621.094-.18-.319.621.094-.18-.318.622.094-.181-.316.623.093-.18-.313.623.092-.181-.288.578.037-.074.031-.06-.009.017-.022.043-.061.121.024-.047-.248.488.091-.181-.314.623.09-.182-.312.624.089-.182-.31.624.089-.182-.308.626.089-.183-.306.626.087-.182-.304.627.088-.183-.303.628.087-.183-.3.629.086-.183-.298.629.085-.183-.296.63.085-.184-.294.631.084-.184-.292.632.083-.184-.29.632.083-.184-.288.633.082-.184-.286.634.082-.184-.284.634.081-.184-.282.635.08-.185-.28.636.08-.184-.278.636.079-.185-.276.638.079-.186-.275.639.079-.186-.273.639.078-.185-.27.639.077-.186-.269.641.077-.186-.267.641.076-.186-.264.641.075-.186-.262.642.075-.186-.261.643.074-.186-.258.643.074-.186-.257.644.073-.187-.254.645.072-.187-.253.646.072-.187-.25.646.071-.187-.248.647.07-.188-.246.648.07-.188-.245.648.07-.187-.243.648.069-.187-.241.649.069-.188-.239.65.068-.188-.237.651.068-.189-.235.652.067-.189-.233.652.066-.188-.231.652.066-.188-.229.653.065-.189-.227.654.064-.189-.224.654.064-.189-.223.655.063-.19-.221.656.063-.189-.219.656.062-.19-.217.657.062-.19-.215.657.061-.19-.213.658.06-.19-.21.659.059-.19-.208.658.059-.19-.207.66.058-.191-.204.66.057-.19-.202.66.057-.19-.201.661.057-.191-.199.662.056-.191-.196.662.055-.191-.194.662.055-.19-.193.663.054-.192-.19.664.053-.191-.188.664.053-.192-.187.665.053-.191-.185.665.052-.192-.182.665.051-.191-.181.666.051-.192-.178.666.05-.191-.177.667.05-.192-.175.667.049-.192-.172.668.048-.193-.17.669.048-.193-.169.669.047-.192-.166.669.047-.193-.165.67.046-.193-.162.67.045-.192-.16.67.045-.193-.159.671.045-.193-.157.672.044-.193-.154.672.043-.194-.152.673.042-.194-.15.673.042-.193-.148.673.041-.194-.146.674.041-.194-.145.674.041-.194-.143.674.04-.193-.14.674.039-.194-.138.675.038-.194-.136.676.038-.194-.134.675.037-.194-.132.676.037-.194-.13.677.036-.195-.128.677.035-.194-.126.677.035-.195-.124.678.035-.195-.122.678.033-.195-.12.678.034-.194-.118.678.032-.194-.116.678.032-.195-.113.679.031-.194-.112.679.031-.195-.11.68.031-.195-.108.679.03-.195-.106.681.029-.196-.104.681.029-.195-.102.68.028-.195-.1.681.028-.195-.098.681.027-.195-.096.681.027-.195-.094.682.026-.196-.092.682.025-.195-.089.682.024-.196-.087.683.024-.196-.086.683.024-.196-.084.683.023-.196-.081.684.022-.196-.08.683.022-.196-.077.684.021-.196-.076.684.021-.196-.073.684.019-.196-.071.684.02-.196-.07.685.019-.197-.067.685.018-.196-.065.685.018-.196-.063.685.016-.197-.06.686.016-.197-.059.686.016-.197-.057.686.015-.197-.055.686.015-.196-.053.686.014-.197-.014.188-.04.498.013-.197-.054.686.013-.197-.051.687.012-.197-.05.686.012-.197-.048.687.011-.197-.045.687.01-.197-.043.686.01-.196-.041.686.009-.196-.039.687.008-.197-.037.687.008-.197-.035.687.007-.197-.033.688.007-.197-.031.687.007-.197-.029.688.005-.197-.027.687.005-.197-.024.688.004-.197-.023.688.004-.197-.021.688.004-.197-.019.688.003-.197-.017.688.002-.197-.014.688.001-.197-.012.688.001-.197-.011.688.001-.197-.009.689v-.198l-.006.689-.001-.197-.004.688-.002-.197-.002.689-.002-.198v.689l-.002-.197.001.688-.003-.197.004.689-.004-.197.007.688-.005-.197.008.689-.005-.198.011.689-.006-.197.012.689-.006-.198.014.689-.006-.197.016.689-.007-.198.018.689-.008-.197.021.688-.009-.197.023.689-.009-.197.024.688-.009-.197.026.689-.01-.197.029.688-.011-.197.031.689-.011-.198.032.689-.012-.197.035.688-.012-.197.037.688-.013-.197.039.689-.014-.198.041.689-.014-.197.043.688-.015-.197.045.688-.015-.197.047.688-.016-.197.049.688-.016-.197.051.688-.017-.197.053.687-.018-.197.056.688-.018-.197.057.688-.019-.197.06.687-.02-.197.062.688-.02-.197.064.687-.021-.197.066.687-.021-.197.068.687-.022-.196.07.687-.023-.197.072.686-.023-.196.075.686-.024-.196.076.686-.024-.197.078.687-.025-.197.081.686-.026-.196.083.686-.027-.197.085.686-.027-.197.087.686-.027-.197.089.686-.028-.197.091.686-.029-.197.093.685-.029-.196.095.685-.03-.196.098.684-.031-.196.1.685-.032-.197.102.685-.032-.196.104.684-.033-.196.106.683-.033-.196.108.684-.033-.196.109.683-.034-.196.112.684-.034-.196.114.683-.036-.196.117.683-.036-.196.118.682-.037-.195.121.682-.037-.196.122.682-.038-.195.125.681-.039-.195.127.681-.039-.195.129.681-.04-.195.131.68-.04-.195.133.681-.041-.196.135.681-.041-.195.137.68-.042-.195.139.679-.042-.195.141.68-.043-.195.143.679-.043-.195.145.679-.044-.195.147.679-.045-.195.15.678-.045-.194.151.677-.046-.194.154.677-.047-.194.156.677-.047-.194.158.677-.048-.195.16.677-.048-.194.162.676-.049-.194.164.676-.05-.194.167.675-.05-.194.168.675-.051-.193.171.674-.052-.193.173.674-.052-.194.175.674-.053-.193.177.673-.053-.193.179.673-.054-.193.182.673-.055-.193.183.672-.055-.193.186.672-.057-.193.188.672-.056-.193.19.671-.058-.193.192.671-.057-.192.194.67-.059-.193.197.67-.06-.192.199.669-.06-.192.201.669-.061-.192.203.669-.061-.192.205.668-.062-.192.207.668-.062-.192.209.667-.063-.191.211.666-.063-.191.213.666-.064-.191.216.666-.065-.191.218.665-.066-.191.22.665-.066-.191.222.664-.066-.19.223.664-.067-.191.226.663-.067-.19.228.663-.068-.19.23.662-.069-.19.232.662-.069-.19.166.469.067.192-.07-.189.232.662-.071-.189.234.662-.071-.189.236.661-.072-.189.238.661-.072-.189.24.66-.073-.188.243.659-.074-.188.244.659-.074-.188.247.658-.075-.188.249.658-.076-.187.252.657-.077-.188.254.657-.077-.187.255.656-.077-.187.257.656-.078-.187.26.655-.078-.187.261.655-.079-.187.264.654-.08-.186.267.653-.081-.186.268.653-.081-.186.271.652-.082-.185.273.651-.082-.185.274.651-.082-.185.276.65-.083-.185.279.65-.084-.185.281.649-.084-.184.283.648-.085-.184.285.648-.085-.184.287.647-.086-.184.29.647-.087-.184.292.646-.088-.184.294.646-.088-.183.296.644-.088-.183.298.644-.089-.182.3.643-.09-.182.303.642-.091-.182.305.642-.091-.182.307.641-.092-.181.31.64-.093-.181.312.64-.093-.181.313.639-.093-.181.315.639-.093-.181.317.638-.094-.18.32.637-.095-.18.322.636-.096-.18.324.636-.096-.18.326.635-.097-.179.329.634-.098-.179.331.634-.098-.179.333.633-.099-.179.335.632-.099-.178.337.631-.099-.177.339.63-.1-.177.341.629-.101-.177.344.629-.101-.177.345.628-.101-.176.347.627-.102-.176.35.626-.103-.175.352.625-.103-.175.354.625-.104-.176.357.624-.105-.175.359.624-.106-.175.361.623-.106-.175.363.622-.106-.174.365.621-.107-.174.368.62-.108-.173.37.619-.108-.173.372.619-.109-.173.374.617-.109-.172.376.617-.11-.172.378.616-.11-.172.381.615-.111-.171.383.614-.112-.171.385.613-.112-.17.387.612-.112-.17.389.611-.113-.169.391.61-.113-.169.393.609-.114-.169.396.609-.115-.169.398.608-.115-.168.4.607-.116-.168.403.606-.116-.167.404.605-.117-.167.407.604-.117-.167.409.603-.118-.166.411.602-.119-.166.414.602-.119-.166.415.601-.119-.166.418.6-.12-.165.419.599-.12-.165.422.598-.121-.164.424.596-.121-.163.426.596-.122-.164.429.595-.123-.163.431.594-.123-.162.433.592-.124-.162.436.592-.124-.161.437.591-.125-.162.44.59-.125-.161.442.589-.126-.16.444.588-.126-.16.446.587-.126-.16.448.586-.127-.159.451.585-.128-.159.453.584-.128-.158.455.583-.129-.158.458.582-.129-.158.459.581-.129-.157.461.58-.11-.133.496.619-.091-.109.495.616-.091-.109.495.613-.092-.11.495.61-.093-.11.495.607-.094-.11.495.603-.095-.11.495.601-.095-.111.494.598-.095-.111.494.594-.096-.111.494.592-.097-.112.493.589-.097-.112.494.586-.099-.112.494.583-.099-.113.493.58-.1-.112.494.577-.101-.113.493.574-.101-.113.493.571-.102-.114.493.569-.102-.114.493.566-.104-.114.493.562-.104-.114.493.56-.105-.115.493.557-.106-.115.493.554-.107-.114.493.551-.107-.115.492.548-.108-.115.493.545-.109-.115.493.542-.11-.115.493.539-.11-.115.492.537-.111-.116.492.534-.111-.116.492.531-.112-.116.492.529-.113-.117.492.526-.114-.117.492.523-.114-.116.492.52-.115-.117.492.518-.116-.117.492.515-.117-.118.492.513-.117-.118.492.51-.118-.118.492.507-.119-.117.492.504-.12-.118.492.502-.12-.118.492.499-.121-.118.492.496-.122-.118.492.494-.122-.118.492.491-.124-.118.493.488-.124-.118.492.485-.125-.118.492.483-.125-.118.492.481-.126-.119.492.478-.127-.118.493.475-.128-.118.492.473-.128-.119.492.47-.129-.118.493.468-.13-.119.493.465-.131-.118.493.463-.131-.119.493.46-.133-.118.493.458-.132-.119.493.455-.134-.118.494.453-.135-.119.494.451-.135-.119.493.448-.135-.118.493.445-.136-.118.494.443-.137-.118.493.44-.137-.118.494.438-.139-.117.494.435-.139-.118.495.433-.14-.117.494.43-.14-.117.495.428-.141-.117.494.426-.141-.117.494.423-.142-.117.495.421-.143-.116.495.418-.143-.116.495.416-.144-.116.495.414-.144-.116.495.411-.145-.116.496.41-.146-.116.496.407-.147-.116.496.405-.147-.115.496.402-.147-.115.496.4-.148-.114.497.397-.149-.114.497.395-.15-.114.497.393-.15-.113.498.39-.151-.113.498.389-.151-.114.498.387-.152-.113.498.384-.152-.113.498.382-.153-.112.499.38-.153-.112.499.377-.154-.111.499.375-.154-.111.499.373-.154-.111.499.371-.155-.11.5.369-.156-.11.501.366-.157-.109.501.364-.157-.109.501.362-.157-.109.501.361-.157-.109.501.358-.158-.108.502.356-.158-.107.502.354-.159-.107.502.351-.159-.106.503.349-.159-.106.502.348-.159-.106.503.346-.16-.106.503.344-.16-.105.504.342-.161-.105.504.34-.161-.104.505.337-.162-.103.505.335-.161-.102.505.333-.162-.102.506.331-.163-.101.506.329-.162-.101.506.327-.163-.1.507.325-.163-.1.507.323-.163-.099.507.321-.163-.099.508.32-.164-.099.509.318-.164-.098.508.316-.164-.097.51.313-.165-.096.51.312-.164-.096.509.309-.164-.095.51.308-.164-.095.511.306-.165-.094.511.304-.165-.093.512.302-.165-.093.512.301-.165-.092.513.298-.165-.091.513.296-.165-.09.513.294-.165-.09.514.293-.165-.089.514.291-.165-.089.515.289-.165-.088.515.288-.165-.088.515.286-.164-.087.516.284-.165-.086.516.282-.164-.086.517.281-.165-.085.517.279-.164-.084.518.277-.164-.084.518.276-.164-.083.519.273-.164-.082.519.272-.164-.082.52.271-.164-.081.521.268-.164-.08.521.267-.163-.08.521.266-.163-.079.522.264-.163-.079.523.262-.163-.077.523.26-.163-.077.524.259-.162-.076.524.257-.162-.075.525.255-.162-.074.525.253-.161-.074.526.253-.161-.074.526.251-.16-.072.527.249-.161-.072.528.247-.16-.071.528.246-.16-.07.529.244-.159-.07.529.243-.159-.069.53.242-.158-.069.53.24-.158-.068.531.239-.157-.067.531.237-.157-.067.532.236-.156-.066.533.234-.157-.065.534.232-.156-.064.534.231-.155-.063.535.229-.155-.062.536.227-.154-.062.536.227-.154-.061.537.225-.154-.061.538.224-.153-.06.538.222-.152-.059.539.221-.152-.059.54.219-.151-.057.54.218-.15-.057.54.216-.149-.056.541.215-.149-.056.542.214-.148-.055.279.109.263.105-.148-.054.542.214-.147-.053.543.213-.147-.053.544.212-.146-.053.544.211-.145-.052.545.21-.144-.052.546.208-.144-.05.546.207-.143-.05.547.205-.142-.049.548.205-.141-.049.548.203-.141-.048.55.202-.14-.047.55.2-.139-.046.55.199-.138-.046.552.198-.138-.045.552.196-.137-.044.554.195-.137-.044.554.195-.135-.044.555.193-.135-.042.556.192-.134-.043.556.191-.133-.041.557.189-.132-.041.558.189-.131-.041.558.188-.13-.04.56.186-.13-.039.56.185-.129-.039.562.185-.128-.039.562.183-.127-.037.562.182-.126-.037.564.18-.126-.036.565.18-.124-.036.565.178-.124-.035.566.178-.122-.035.567.176-.122-.034.568.176-.121-.034.569.174-.12-.033.569.174-.119-.033.571.172-.119-.032.572.172-.117-.032.572.17-.117-.031.573.17-.115-.031.574.169-.114-.031.574.168-.113-.03.576.167-.113-.03.577.166-.112-.029.578.165-.111-.028.578.164-.11-.028.58.163-.109-.028.58.162-.108-.027.582.162-.107-.027.582.16-.106-.026.583.16-.105-.026.584.159-.104-.026.585.158-.103-.025.586.157-.102-.024.586.156-.101-.024.588.155-.1-.024.589.155-.1-.023.59.153-.098-.023.59.153-.097-.022.592.152-.096-.022.592.151-.095-.022.593.151-.094-.021.595.149-.094-.021.596.149-.092-.02.596.148-.091-.02.597.147-.09-.019.598.146-.089-.019.6.146-.089-.019.601.145-.088-.019.602.145-.143-.03.822.195-.197-.041.827.194-.195-.04.831.192-.191-.039.836.19-.189-.038.84.189-.186-.037.844.186-.183-.035.849.185-.181-.035.853.183-.178-.033.858.181-.176-.032.862.179-.174-.031.867.178-.171-.031.871.176-.169-.029.875.174-.166-.029.879.173-.164-.028.884.171-.162-.027.888.169-.16-.026.892.167-.157-.025.896.165-.155-.024.9.164-.153-.024.904.162-.151-.023.908.161-.149-.022.913.158-.147-.021.916.157-.145-.021.921.156-.143-.021.924.154-.141-.019.928.152-.139-.019.932.151-.137-.019.936.149-.135-.018.94.148-.134-.018.944.146-.132-.017.947.145-.129-.017.951.143-.128-.016.954.142-.126-.016.959.14-.125-.015.962.138-.123-.014.966.136-.121-.014.969.135-.12-.013.973.133-.118-.013.977.132-.117-.012.981.13-.116-.012.984.129-.113-.012.987.128-.112-.012.991.126-.111-.011.994.125-.109-.011.998.123-.108-.01 1.001.121-.106-.01 1.004.121-.105-.01 1.008.119-.103-.01 1.011.118-.102-.009 1.014.116-.101-.009 1.018.114-.1-.008 1.021.113-.098-.008 1.024.112-.097-.008 1.027.11-.095-.008 1.03.11-.094-.008 1.033.108-.093-.007 1.037.106-.092-.007 1.039.105-.09-.007 1.042.104-.089-.006 1.045.102-.088-.006 1.049.101-.087-.006 1.051.1-.086-.006 1.055.099-.085-.006 1.058.097-.084-.005 1.06.096-.082-.006 1.063.095-.082-.005 1.066.094-.08-.005 1.069.092-.08-.005 1.072.091-.079-.004 1.075.09-.078-.005 1.078.089-.077-.004 1.08.087-.075-.004 1.082.086-.074-.004 1.085.085-.073-.003 1.088.084-.073-.004 1.091.083-.072-.004 1.093.082-.071-.004 1.096.081-.07-.004 1.099.08-.069-.003 1.1.078-.067-.003 1.103.077-.067-.003 1.105.076-.066-.003 1.108.075-.065-.003 1.11.074-.064-.003 1.113.073-.064-.002 1.115.071-.062-.002 1.117.07-.062-.002 1.12.07-.061-.003 1.122.069-.06-.002 1.124.067-.06-.002 1.127.067-.059-.002 1.129.065-.058-.002 1.131.064-.057-.001 1.133.063-.057-.002 1.135.063-.055-.002 1.137.062-.055-.002 1.139.06-.054-.001 1.141.059-.053-.001 1.143.059-.052-.002 1.145.058-.052-.001 1.147.056-.051-.001 1.149.056-.05-.001 1.15.054-.049-.001 1.153.054-.049-.001 1.154.053-.048-.001 1.156.052-.047-.001 1.158.051h-.047l1.16.05-.046-.001 1.161.05-.045-.001 1.163.048h-.045l1.165.048-.044-.001 1.167.047-.044-.001 1.168.046h-.043l1.17.045-.042-.001 1.171.045-.041-.001 1.173.044h-.041l1.174.043-.04-.001 1.176.042h-.04l1.177.041h-.039l1.179.04h-.039l1.181.04h-.038l1.181.039-.037-.001 1.183.039h-.037l1.185.037h-.054l2.372.073h-.07l2.378.07h-.068l2.383.067h-.066l2.387.065h-.063l2.141.056.25.008h-.061l2.396.067-.06.001 2.4.065h-.057l2.404.063-.055.001 2.407.061h-.053l2.411.059h-.051l2.413.056-.049.001 2.417.054-.047.001 2.419.052-.045.001 2.422.05-.043.001 2.424.049h-.041l2.426.047-.039.001 2.428.045h-.037l2.43.044-.036.001 2.431.042h-.034l2.433.041-.032.001 2.434.039-.031.001 2.435.038h-.029l2.436.037h-.027l2.436.036h-.025l2.435.035h-.023l2.436.034h-.022l2.436.033h-.02l2.435.032-.026.001 4.868.061h-.029l4.864.059h-.022l4.858.057h-.016l4.85.055h-.009l4.842.054 9.647.108h.014l4.803.055h.018l4.787.056.025-.001 4.769.059.023-.001 2.377.031.018-.001 2.373.031h.019l2.367.031h.021l2.362.032h.023l2.356.034.025-.001 2.35.035.026-.001 2.344.036.029-.001 2.337.037h.03l2.331.038.033-.001 2.324.039h.034l2.317.04h.036l2.31.042h.038l2.303.043h.04l2.295.045h.042l2.287.046h.044l.843.018 1.436.032.046-.001 2.271.052h.048l2.263.054h.01l10.521 1.289 9.836 3.208 8.924 4.915 7.797 6.407 6.454 7.685 4.893 8.751 3.119 9.602 1.126 10.229v.02l-1.012 10.242-3.011 9.636-4.796 8.805-6.368 7.757-7.725 6.493-8.869 5.014-9.799 3.317-10.506 1.406h-.01l-2.262.079h.048l-2.271.082.046-.001-1.436.053-.842.03h.044l-2.287.084h.042l-2.294.086h.04l-2.301.088h.037l-2.308.09h.036l-2.316.092h.034l-2.323.094.032-.001-2.329.096.03-.001-2.336.098.029-.001-2.343.099h.027l-2.348.1.025-.001-2.354.102h.023l-2.36.102h.021l-2.365.104h.02l-2.371.105.018-.001-2.375.106h.023l-4.765.215.025-.001-4.783.218h.018l-4.798.22h.013l-9.637.444-4.837.223-.009.001-4.845.222-.016.001-4.853.221-.023.001-4.859.22h-.03l-4.863.218h-.027l-2.433.108h-.019l-2.434.107h-.021l-2.434.106h-.023l-2.434.105h-.025l-2.434.104h-.027z" fill="url(#a)" fill-rule="evenodd"/></svg>